<svg width="16" height="16" viewBox="0 0 16 16" fill="none" xmlns="http://www.w3.org/2000/svg">
<path d="M7.96592 1.68945C4.43088 1.68945 1.56592 4.52673 1.56592 8.02722C1.56592 11.5267 4.43104 14.3647 7.96592 14.3647C11.5003 14.3647 14.3659 11.5267 14.3659 8.02722C14.3658 4.52673 11.5003 1.68945 7.96592 1.68945ZM7.96592 12.3104C5.57632 12.3104 3.63952 10.3925 3.63952 8.02706C3.63952 5.66066 5.57632 3.74257 7.96592 3.74257C10.3554 3.74257 12.2923 5.66066 12.2923 8.02706C12.2922 10.3925 10.3554 12.3104 7.96592 12.3104Z" fill="url(#paint0_radial_1702_238)"/>
<path d="M7.9659 4.02014C5.73102 4.02014 3.91949 5.81423 3.91949 8.02623C3.91949 10.2387 5.73102 12.0328 7.9659 12.0328C10.2003 12.0328 12.0113 10.2387 12.0113 8.02623C12.0112 5.81423 10.2003 4.02014 7.9659 4.02014ZM5.70926 10.3525C5.18733 9.86527 4.84045 9.21695 4.72621 8.51535L6.06286 8.30319C6.12942 8.71327 6.33182 9.09231 6.6371 9.37679L5.70926 10.3525ZM6.28142 7.17311L5.06669 6.58159C5.38398 5.94447 5.90734 5.42559 6.55102 5.1115L7.14862 6.31391C6.77214 6.49791 6.46622 6.80047 6.28142 7.17311ZM7.1179 11.1472L7.45838 9.84991C7.86414 9.95359 8.29598 9.92255 8.68142 9.75999L9.2123 10.9926C8.55166 11.2706 7.81326 11.3251 7.1179 11.1472ZM8.30526 6.14591L8.57118 4.83102C9.27438 4.97166 9.91486 5.33999 10.3872 5.87519L9.36558 6.75535C9.09038 6.44287 8.7163 6.22783 8.30526 6.14591ZM10.6773 9.78687L9.55278 9.04095C9.78526 8.69615 9.89774 8.28191 9.8699 7.86719L11.2205 7.77887C11.2678 8.48783 11.076 9.19583 10.6773 9.78687Z" fill="url(#paint1_radial_1702_238)"/>
<path d="M7.96591 3.74658C5.57887 3.74658 3.64319 5.66275 3.64319 8.02627C3.64319 10.3908 5.57887 12.3072 7.96591 12.3072C10.3531 12.3072 12.2883 10.3908 12.2883 8.02627C12.2883 5.66275 10.3531 3.74658 7.96591 3.74658ZM7.96591 12.0328C5.73103 12.0328 3.91951 10.2388 3.91951 8.02627C3.91951 5.81427 5.73103 4.02018 7.96591 4.02018C10.2003 4.02018 12.0114 5.81427 12.0114 8.02627C12.0112 10.2388 10.2003 12.0328 7.96591 12.0328Z" fill="url(#paint2_linear_1702_238)"/>
<path d="M6.70834 9.30224C6.42114 9.03344 6.22802 8.67344 6.1645 8.28752L6.1485 8.1864L6.04674 8.20208L4.60754 8.43056L4.62418 8.53168C4.74082 9.25312 5.10178 9.9264 5.63874 10.4277L5.71426 10.4979L6.78354 9.37264L6.70834 9.30224ZM5.7093 10.3525C5.18738 9.86528 4.8405 9.21696 4.72626 8.51536L6.0629 8.3032C6.12946 8.71328 6.33186 9.09232 6.63714 9.3768L5.7093 10.3525Z" fill="url(#paint3_linear_1702_238)"/>
<path d="M10.465 5.80798C9.98096 5.25741 9.31472 4.87453 8.5912 4.73101L8.48912 4.71069L8.46912 4.81149L8.18256 6.22606L8.28464 6.24622C8.67216 6.32366 9.02864 6.5283 9.28784 6.8235L9.35632 6.90014L10.5331 5.8859L10.465 5.80798ZM9.3656 6.7555C9.0904 6.44286 8.71616 6.22782 8.30528 6.1459L8.5712 4.83101C9.2744 4.97165 9.91488 5.33998 10.3872 5.87518L9.3656 6.7555Z" fill="url(#paint4_linear_1702_238)"/>
<path d="M11.3239 7.77187L11.3168 7.66931L11.2136 7.67571L9.75971 7.77235L9.76643 7.87427C9.79235 8.26467 9.68579 8.65859 9.46579 8.98355L9.40851 9.06915L10.7053 9.92915L10.7631 9.84435C11.1731 9.23667 11.3725 8.50083 11.3239 7.77187ZM10.6773 9.78691L9.55283 9.04099C9.78531 8.69619 9.89779 8.28195 9.86995 7.86723L11.2205 7.77891C11.2679 8.48787 11.076 9.19587 10.6773 9.78691Z" fill="url(#paint5_linear_1702_238)"/>
<path d="M6.59871 4.97388L6.50607 5.01964C5.84351 5.34285 5.29935 5.88093 4.97359 6.53629L4.92767 6.62845L6.32847 7.31005L6.37423 7.21821C6.54879 6.86749 6.83999 6.57853 7.19455 6.40605L7.28735 6.36109L6.59871 4.97388ZM6.28143 7.17309L5.06671 6.58157C5.38399 5.94445 5.90735 5.42557 6.55103 5.11148L7.14863 6.31389C6.77215 6.49789 6.46623 6.80045 6.28143 7.17309Z" fill="url(#paint6_linear_1702_238)"/>
<path d="M8.73651 9.62463L8.64131 9.66527C8.27763 9.81807 7.86691 9.84863 7.48435 9.75055L7.38403 9.72463L6.99219 11.2203L7.09251 11.2466C7.80659 11.4299 8.57347 11.373 9.25267 11.087L9.34835 11.0464L8.73651 9.62463ZM7.11795 11.1472L7.45843 9.84991C7.86419 9.95359 8.29603 9.92255 8.68147 9.75999L9.21235 10.9926C8.55171 11.2706 7.81331 11.3251 7.11795 11.1472Z" fill="url(#paint7_linear_1702_238)"/>
<path d="M8.49775 7.93796C8.49775 8.25348 8.24031 8.50836 7.92239 8.50836C7.60351 8.50836 7.34607 8.25332 7.34607 7.93796C7.34607 7.6234 7.60351 7.36804 7.92239 7.36804C8.24031 7.3682 8.49775 7.6234 8.49775 7.93796Z" fill="url(#paint8_radial_1702_238)"/>
<path d="M7.98959 9.09598C8.12346 9.09598 8.23199 8.98873 8.23199 8.85646C8.23199 8.7242 8.12346 8.61694 7.98959 8.61694C7.85573 8.61694 7.74719 8.7242 7.74719 8.85646C7.74719 8.98873 7.85573 9.09598 7.98959 9.09598Z" fill="url(#paint9_radial_1702_238)"/>
<path d="M7.24802 7.53597C7.38188 7.53597 7.49042 7.42882 7.49042 7.29661C7.49042 7.1644 7.38188 7.05725 7.24802 7.05725C7.11415 7.05725 7.00562 7.1644 7.00562 7.29661C7.00562 7.42882 7.11415 7.53597 7.24802 7.53597Z" fill="url(#paint10_radial_1702_238)"/>
<path d="M8.65744 7.14926C8.65744 7.28206 8.54944 7.38942 8.41584 7.38942C8.28224 7.38942 8.17328 7.28206 8.17328 7.14926C8.17328 7.01726 8.28224 6.90942 8.41584 6.90942C8.54944 6.90942 8.65744 7.0171 8.65744 7.14926Z" fill="url(#paint11_radial_1702_238)"/>
<path d="M9.07729 8.18878C9.07729 8.32062 8.96833 8.42878 8.83489 8.42878C8.70065 8.42878 8.59265 8.32062 8.59265 8.18878C8.59265 8.0563 8.70065 7.9491 8.83489 7.9491C8.96849 7.9491 9.07729 8.0563 9.07729 8.18878Z" fill="url(#paint12_radial_1702_238)"/>
<path d="M7.36766 8.3794C7.36766 8.51172 7.25934 8.61924 7.12558 8.61924C6.9915 8.61924 6.88318 8.51172 6.88318 8.3794C6.88318 8.24596 6.9915 8.1394 7.12558 8.1394C7.25934 8.1394 7.36766 8.24596 7.36766 8.3794Z" fill="url(#paint13_radial_1702_238)"/>
<path d="M7.96592 1.56458C4.43088 1.56458 1.56592 4.40138 1.56592 7.90186C1.56592 11.4011 4.43104 14.2388 7.96592 14.2388C11.5003 14.2388 14.3659 11.4011 14.3659 7.90186C14.3658 4.40154 11.5003 1.56458 7.96592 1.56458ZM7.96592 12.1854C5.57632 12.1854 3.63952 10.2671 3.63952 7.90202C3.63952 5.53594 5.57632 3.61754 7.96592 3.61754C10.3554 3.61754 12.2923 5.53594 12.2923 7.90202C12.2922 10.2671 10.3554 12.1854 7.96592 12.1854Z" fill="url(#paint14_radial_1702_238)"/>
<path d="M7.9659 3.89539C5.73102 3.89539 3.91949 5.68884 3.91949 7.90148C3.91949 10.114 5.73102 11.9079 7.9659 11.9079C10.2003 11.9079 12.0113 10.114 12.0113 7.90148C12.0112 5.68884 10.2003 3.89539 7.9659 3.89539ZM5.70926 10.2277C5.18733 9.74036 4.84045 9.0922 4.72621 8.3906L6.06286 8.17812C6.12942 8.5882 6.33182 8.9674 6.6371 9.25188L5.70926 10.2277ZM6.28142 7.04852L5.06669 6.457C5.38398 5.81924 5.90734 5.30051 6.55102 4.98691L7.14862 6.18916C6.77214 6.37316 6.46622 6.6754 6.28142 7.04852ZM7.1179 11.0221L7.45838 9.72532C7.86414 9.82916 8.29598 9.79748 8.68142 9.63524L9.2123 10.8679C8.55166 11.1455 7.81326 11.2 7.1179 11.0221ZM8.30526 6.021L8.57118 4.70611C9.27438 4.84659 9.91486 5.21507 10.3872 5.75044L9.36558 6.63044C9.09038 6.3178 8.7163 6.10292 8.30526 6.021ZM10.6773 9.66212L9.55278 8.91652C9.78526 8.57076 9.89774 8.15716 9.8699 7.74244L11.2205 7.65348C11.2678 8.36244 11.076 9.0706 10.6773 9.66212Z" fill="url(#paint15_radial_1702_238)"/>
<path d="M7.96591 3.62122C5.57887 3.62122 3.64319 5.5377 3.64319 7.90138C3.64319 10.2657 5.57887 12.1822 7.96591 12.1822C10.3531 12.1822 12.2883 10.2657 12.2883 7.90138C12.2883 5.53754 10.3531 3.62122 7.96591 3.62122ZM7.96591 11.9078C5.73103 11.9078 3.91951 10.1139 3.91951 7.90138C3.91951 5.68874 5.73103 3.8953 7.96591 3.8953C10.2003 3.8953 12.0114 5.68874 12.0114 7.90138C12.0112 10.1139 10.2003 11.9078 7.96591 11.9078Z" fill="url(#paint16_linear_1702_238)"/>
<path d="M6.70834 9.17674C6.42114 8.90842 6.22802 8.54778 6.1645 8.16202L6.1485 8.06042L6.04674 8.07674L4.60754 8.30554L4.62418 8.40698C4.74082 9.12842 5.10178 9.80138 5.63874 10.302L5.71426 10.3727L6.78354 9.2481L6.70834 9.17674ZM5.7093 10.2276C5.18738 9.74027 4.8405 9.0921 4.72626 8.3905L6.0629 8.17802C6.12946 8.5881 6.33186 8.9673 6.63714 9.25178L5.7093 10.2276Z" fill="url(#paint17_linear_1702_238)"/>
<path d="M10.465 5.68302C9.98096 5.13261 9.31472 4.74957 8.5912 4.60589L8.48912 4.58557L8.46912 4.68685L8.18256 6.10126L8.28464 6.12158C8.67216 6.19886 9.02864 6.40334 9.28784 6.69822L9.35632 6.77534L10.5331 5.76046L10.465 5.68302ZM9.3656 6.63038C9.0904 6.31774 8.71616 6.1027 8.30528 6.02078L8.5712 4.70589C9.2744 4.84637 9.91488 5.21485 10.3872 5.75022L9.3656 6.63038Z" fill="url(#paint18_linear_1702_238)"/>
<path d="M11.3238 7.64667L11.3168 7.54443L11.2136 7.55051L9.75967 7.64699L9.76639 7.74955C9.79231 8.13979 9.68575 8.53371 9.46575 8.85867L9.40863 8.94395L10.7054 9.80363L10.7632 9.71883C11.1731 9.11115 11.3725 8.37595 11.3238 7.64667ZM10.6773 9.66203L9.55279 8.91643C9.78527 8.57067 9.89775 8.15707 9.86991 7.74235L11.2205 7.65339C11.2678 8.36235 11.076 9.07051 10.6773 9.66203Z" fill="url(#paint19_linear_1702_238)"/>
<path d="M6.59871 4.84912L6.50607 4.89472C5.84351 5.21776 5.29935 5.7557 4.97359 6.41138L4.92767 6.50354L6.32847 7.1853L6.37423 7.09346C6.54879 6.74274 6.83999 6.45426 7.19455 6.28098L7.28735 6.23602L6.59871 4.84912ZM6.28143 7.0485L5.06671 6.45698C5.38399 5.81922 5.90735 5.30048 6.55103 4.98688L7.14863 6.18914C6.77215 6.37314 6.46623 6.67538 6.28143 7.0485Z" fill="url(#paint20_linear_1702_238)"/>
<path d="M8.73651 9.49963L8.64131 9.54027C8.27763 9.69323 7.86691 9.72347 7.48435 9.62571L7.38403 9.59963L6.99219 11.0955L7.09251 11.1211C7.80659 11.3044 8.57347 11.2481 9.25267 10.9624L9.34835 10.9212L8.73651 9.49963ZM7.11795 11.022L7.45843 9.72523C7.86419 9.82907 8.29603 9.79739 8.68147 9.63515L9.21235 10.8678C8.55171 11.1454 7.81331 11.2 7.11795 11.022Z" fill="url(#paint21_linear_1702_238)"/>
<path d="M8.49775 7.81292C8.49775 8.12828 8.24031 8.38348 7.92239 8.38348C7.60351 8.38348 7.34607 8.12812 7.34607 7.81292C7.34607 7.4982 7.60351 7.24268 7.92239 7.24268C8.24031 7.24268 8.49775 7.4982 8.49775 7.81292Z" fill="url(#paint22_radial_1702_238)"/>
<path d="M8.23187 8.73082C8.23187 8.86362 8.12371 8.97114 7.98947 8.97114C7.85539 8.97114 7.74707 8.86362 7.74707 8.73082C7.74707 8.59882 7.85539 8.49194 7.98947 8.49194C8.12371 8.49194 8.23187 8.59882 8.23187 8.73082Z" fill="url(#paint23_radial_1702_238)"/>
<path d="M7.24802 7.41108C7.38188 7.41108 7.49042 7.30366 7.49042 7.17124C7.49042 7.03876 7.38188 6.9314 7.24802 6.9314C7.11415 6.9314 7.00562 7.03876 7.00562 7.17124C7.00562 7.30366 7.11415 7.41108 7.24802 7.41108Z" fill="url(#paint24_radial_1702_238)"/>
<path d="M8.65744 7.02394C8.65744 7.15722 8.54944 7.26442 8.41584 7.26442C8.28224 7.26442 8.17328 7.15722 8.17328 7.02394C8.17328 6.89178 8.28224 6.78442 8.41584 6.78442C8.54944 6.78442 8.65744 6.89178 8.65744 7.02394Z" fill="url(#paint25_radial_1702_238)"/>
<path d="M8.83501 8.30317C8.96883 8.30317 9.07725 8.19581 9.07725 8.06333C9.07725 7.93085 8.96883 7.82349 8.83501 7.82349C8.70125 7.82349 8.59277 7.93085 8.59277 8.06333C8.59277 8.19581 8.70125 8.30317 8.83501 8.30317Z" fill="url(#paint26_radial_1702_238)"/>
<path d="M7.12542 8.49376C7.25923 8.49376 7.36766 8.38646 7.36766 8.25408C7.36766 8.12171 7.25923 8.0144 7.12542 8.0144C6.99166 8.0144 6.88318 8.12171 6.88318 8.25408C6.88318 8.38646 6.99166 8.49376 7.12542 8.49376Z" fill="url(#paint27_radial_1702_238)"/>
<defs>
<radialGradient id="paint0_radial_1702_238" cx="0" cy="0" r="1" gradientUnits="userSpaceOnUse" gradientTransform="translate(7.96554 8.02684) scale(6.4 6.3376)">
<stop offset="0.3371" stop-color="#54585D"/>
<stop offset="0.4611" stop-color="#52565B"/>
<stop offset="0.5178" stop-color="#4B4F53"/>
<stop offset="0.5608" stop-color="#404347"/>
<stop offset="0.5969" stop-color="#2F3235"/>
<stop offset="0.6283" stop-color="#1A1C1D"/>
<stop offset="0.6566" stop-color="#010101"/>
<stop offset="0.6573"/>
<stop offset="0.736" stop-color="#797E83"/>
<stop offset="0.9382" stop-color="#18171A"/>
<stop offset="1" stop-color="#808184"/>
</radialGradient>
<radialGradient id="paint1_radial_1702_238" cx="0" cy="0" r="1" gradientUnits="userSpaceOnUse" gradientTransform="translate(7.96521 8.02645) scale(4.04578 4.00633)">
<stop offset="0.5843" stop-color="#EAEBEC"/>
<stop offset="0.9382" stop-color="#65686C"/>
<stop offset="1" stop-color="#EAEBEC"/>
</radialGradient>
<linearGradient id="paint2_linear_1702_238" x1="4.75031" y1="10.9477" x2="11.2732" y2="5.02269" gradientUnits="userSpaceOnUse">
<stop stop-color="#9EA6AF"/>
<stop offset="0.3764" stop-color="white"/>
<stop offset="0.4019" stop-color="#F4F4F6"/>
<stop offset="0.4944" stop-color="#CFD2D7"/>
<stop offset="0.5809" stop-color="#B5B9C2"/>
<stop offset="0.6584" stop-color="#A6AAB5"/>
<stop offset="0.7191" stop-color="#A0A5B0"/>
<stop offset="1" stop-color="#F7F7F8"/>
</linearGradient>
<linearGradient id="paint3_linear_1702_238" x1="4.9351" y1="9.66955" x2="6.36573" y2="8.37003" gradientUnits="userSpaceOnUse">
<stop stop-color="#101116"/>
<stop offset="1" stop-color="#6F747C"/>
</linearGradient>
<linearGradient id="paint4_linear_1702_238" x1="8.31376" y1="6.38585" x2="9.80848" y2="5.02809" gradientUnits="userSpaceOnUse">
<stop stop-color="#101116"/>
<stop offset="1" stop-color="#6F747C"/>
</linearGradient>
<linearGradient id="paint5_linear_1702_238" x1="9.66328" y1="9.3683" x2="11.4493" y2="7.74606" gradientUnits="userSpaceOnUse">
<stop stop-color="#101116"/>
<stop offset="1" stop-color="#6F747C"/>
</linearGradient>
<linearGradient id="paint6_linear_1702_238" x1="5.31633" y1="7.07474" x2="7.09892" y2="5.45549" gradientUnits="userSpaceOnUse">
<stop stop-color="#101116"/>
<stop offset="1" stop-color="#6F747C"/>
</linearGradient>
<linearGradient id="paint7_linear_1702_238" x1="7.18872" y1="11.4553" x2="8.98227" y2="9.82618" gradientUnits="userSpaceOnUse">
<stop stop-color="#101116"/>
<stop offset="1" stop-color="#6F747C"/>
</linearGradient>
<radialGradient id="paint8_radial_1702_238" cx="0" cy="0" r="1" gradientUnits="userSpaceOnUse" gradientTransform="translate(7.92186 7.93823) scale(0.575781 0.570165)">
<stop stop-color="#848C94"/>
<stop offset="1" stop-color="#111016"/>
</radialGradient>
<radialGradient id="paint9_radial_1702_238" cx="0" cy="0" r="1" gradientUnits="userSpaceOnUse" gradientTransform="translate(7.98938 8.85614) scale(0.242176 0.239814)">
<stop stop-color="#9EA6AF"/>
<stop offset="1" stop-color="#111016"/>
</radialGradient>
<radialGradient id="paint10_radial_1702_238" cx="0" cy="0" r="1" gradientUnits="userSpaceOnUse" gradientTransform="translate(7.24791 7.29613) scale(0.24211 0.239748)">
<stop stop-color="#9EA6AF"/>
<stop offset="1" stop-color="#111016"/>
</radialGradient>
<radialGradient id="paint11_radial_1702_238" cx="0" cy="0" r="1" gradientUnits="userSpaceOnUse" gradientTransform="translate(8.41077 7.15028) scale(0.242197 0.23982)">
<stop stop-color="#9EA6AF"/>
<stop offset="1" stop-color="#111016"/>
</radialGradient>
<radialGradient id="paint12_radial_1702_238" cx="0" cy="0" r="1" gradientUnits="userSpaceOnUse" gradientTransform="translate(8.83494 8.18862) scale(0.242219 0.239858)">
<stop stop-color="#9EA6AF"/>
<stop offset="1" stop-color="#111016"/>
</radialGradient>
<radialGradient id="paint13_radial_1702_238" cx="0" cy="0" r="1" gradientUnits="userSpaceOnUse" gradientTransform="translate(7.12526 8.37919) scale(0.24222 0.239857)">
<stop stop-color="#9EA6AF"/>
<stop offset="1" stop-color="#111016"/>
</radialGradient>
<radialGradient id="paint14_radial_1702_238" cx="0" cy="0" r="1" gradientUnits="userSpaceOnUse" gradientTransform="translate(7.96554 7.90154) scale(6.39979 6.33739)">
<stop offset="0.3371" stop-color="#54585D"/>
<stop offset="0.4611" stop-color="#52565B"/>
<stop offset="0.5178" stop-color="#4B4F53"/>
<stop offset="0.5608" stop-color="#404347"/>
<stop offset="0.5969" stop-color="#2F3235"/>
<stop offset="0.6283" stop-color="#1A1C1D"/>
<stop offset="0.6566" stop-color="#010101"/>
<stop offset="0.6573"/>
<stop offset="0.736" stop-color="#797E83"/>
<stop offset="0.9382" stop-color="#18171A"/>
<stop offset="1" stop-color="#808184"/>
</radialGradient>
<radialGradient id="paint15_radial_1702_238" cx="0" cy="0" r="1" gradientUnits="userSpaceOnUse" gradientTransform="translate(7.96521 7.90148) scale(4.04578 4.00633)">
<stop offset="0.5843" stop-color="#EAEBEC"/>
<stop offset="0.9382" stop-color="#65686C"/>
<stop offset="1" stop-color="#EAEBEC"/>
</radialGradient>
<linearGradient id="paint16_linear_1702_238" x1="4.75031" y1="10.8224" x2="11.2733" y2="4.89738" gradientUnits="userSpaceOnUse">
<stop stop-color="#9EA6AF"/>
<stop offset="0.3764" stop-color="white"/>
<stop offset="0.4019" stop-color="#F4F4F6"/>
<stop offset="0.4944" stop-color="#CFD2D7"/>
<stop offset="0.5809" stop-color="#B5B9C2"/>
<stop offset="0.6584" stop-color="#A6AAB5"/>
<stop offset="0.7191" stop-color="#A0A5B0"/>
<stop offset="1" stop-color="#F7F7F8"/>
</linearGradient>
<linearGradient id="paint17_linear_1702_238" x1="4.93526" y1="9.54432" x2="6.36605" y2="8.24464" gradientUnits="userSpaceOnUse">
<stop stop-color="#101116"/>
<stop offset="1" stop-color="#6F747C"/>
</linearGradient>
<linearGradient id="paint18_linear_1702_238" x1="8.3136" y1="6.26078" x2="9.80837" y2="4.90296" gradientUnits="userSpaceOnUse">
<stop stop-color="#101116"/>
<stop offset="1" stop-color="#6F747C"/>
</linearGradient>
<linearGradient id="paint19_linear_1702_238" x1="9.66314" y1="9.24278" x2="11.4488" y2="7.6207" gradientUnits="userSpaceOnUse">
<stop stop-color="#101116"/>
<stop offset="1" stop-color="#6F747C"/>
</linearGradient>
<linearGradient id="paint20_linear_1702_238" x1="5.31625" y1="6.94967" x2="7.09876" y2="5.33055" gradientUnits="userSpaceOnUse">
<stop stop-color="#101116"/>
<stop offset="1" stop-color="#6F747C"/>
</linearGradient>
<linearGradient id="paint21_linear_1702_238" x1="7.18845" y1="11.3302" x2="8.98216" y2="9.70097" gradientUnits="userSpaceOnUse">
<stop stop-color="#101116"/>
<stop offset="1" stop-color="#6F747C"/>
</linearGradient>
<radialGradient id="paint22_radial_1702_238" cx="0" cy="0" r="1" gradientUnits="userSpaceOnUse" gradientTransform="translate(7.92186 7.81292) scale(0.575893 0.570277)">
<stop stop-color="#848C94"/>
<stop offset="1" stop-color="#111016"/>
</radialGradient>
<radialGradient id="paint23_radial_1702_238" cx="0" cy="0" r="1" gradientUnits="userSpaceOnUse" gradientTransform="translate(7.98942 8.73136) scale(0.242176 0.239814)">
<stop stop-color="#9EA6AF"/>
<stop offset="1" stop-color="#111016"/>
</radialGradient>
<radialGradient id="paint24_radial_1702_238" cx="0" cy="0" r="1" gradientUnits="userSpaceOnUse" gradientTransform="translate(7.24791 7.17118) scale(0.24222 0.239858)">
<stop stop-color="#9EA6AF"/>
<stop offset="1" stop-color="#111016"/>
</radialGradient>
<radialGradient id="paint25_radial_1702_238" cx="0" cy="0" r="1" gradientUnits="userSpaceOnUse" gradientTransform="translate(8.41077 7.02528) scale(0.242197 0.23982)">
<stop stop-color="#9EA6AF"/>
<stop offset="1" stop-color="#111016"/>
</radialGradient>
<radialGradient id="paint26_radial_1702_238" cx="0" cy="0" r="1" gradientUnits="userSpaceOnUse" gradientTransform="translate(8.83491 8.06338) scale(0.24211 0.239749)">
<stop stop-color="#9EA6AF"/>
<stop offset="1" stop-color="#111016"/>
</radialGradient>
<radialGradient id="paint27_radial_1702_238" cx="0" cy="0" r="1" gradientUnits="userSpaceOnUse" gradientTransform="translate(7.12526 8.25392) scale(0.24211 0.239748)">
<stop stop-color="#9EA6AF"/>
<stop offset="1" stop-color="#111016"/>
</radialGradient>
</defs>
</svg>
