<svg width="32" height="32" viewBox="0 0 32 32" fill="none" xmlns="http://www.w3.org/2000/svg">
<path d="M15.9318 3.37891C8.86176 3.37891 3.13184 9.05347 3.13184 16.0544C3.13184 23.0535 8.86208 28.7293 15.9318 28.7293C23.0006 28.7293 28.7318 23.0535 28.7318 16.0544C28.7315 9.05347 23.0006 3.37891 15.9318 3.37891ZM15.9318 24.6208C11.1526 24.6208 7.27904 20.785 7.27904 16.0541C7.27904 11.3213 11.1526 7.48515 15.9318 7.48515C20.7107 7.48515 24.5846 11.3213 24.5846 16.0541C24.5843 20.785 20.7107 24.6208 15.9318 24.6208Z" fill="url(#paint0_radial_1702_238)"/>
<path d="M15.9319 8.04028C11.4621 8.04028 7.83905 11.6285 7.83905 16.0525C7.83905 20.4774 11.4621 24.0656 15.9319 24.0656C20.4007 24.0656 24.0227 20.4774 24.0227 16.0525C24.0224 11.6285 20.4007 8.04028 15.9319 8.04028ZM11.4186 20.7049C10.3747 19.7305 9.68097 18.4339 9.45249 17.0307L12.1258 16.6064C12.2589 17.4265 12.6637 18.1846 13.2743 18.7536L11.4186 20.7049ZM12.5629 14.3462L10.1334 13.1632C10.768 11.8889 11.8147 10.8512 13.1021 10.223L14.2973 12.6278C13.5443 12.9958 12.9325 13.6009 12.5629 14.3462ZM14.2359 22.2944L14.9168 19.6998C15.7283 19.9072 16.592 19.8451 17.3629 19.52L18.4247 21.9853C17.1034 22.5411 15.6266 22.6502 14.2359 22.2944ZM16.6106 12.2918L17.1424 9.66204C18.5488 9.94332 19.8298 10.68 20.7744 11.7504L18.7312 13.5107C18.1808 12.8857 17.4327 12.4557 16.6106 12.2918ZM21.3546 19.5737L19.1056 18.0819C19.5706 17.3923 19.7955 16.5638 19.7399 15.7344L22.441 15.5577C22.5357 16.9757 22.152 18.3917 21.3546 19.5737Z" fill="url(#paint1_radial_1702_238)"/>
<path d="M15.9318 7.49304C11.1577 7.49304 7.28638 11.3254 7.28638 16.0524C7.28638 20.7814 11.1577 24.6143 15.9318 24.6143C20.7062 24.6143 24.5766 20.7814 24.5766 16.0524C24.5766 11.3254 20.7062 7.49304 15.9318 7.49304ZM15.9318 24.0655C11.4621 24.0655 7.83902 20.4774 7.83902 16.0524C7.83902 11.6284 11.4621 8.04024 15.9318 8.04024C20.4006 8.04024 24.0227 11.6284 24.0227 16.0524C24.0224 20.4774 20.4006 24.0655 15.9318 24.0655Z" fill="url(#paint2_linear_1702_238)"/>
<path d="M13.4166 18.6045C12.8422 18.0669 12.456 17.3469 12.3289 16.575L12.2969 16.3728L12.0934 16.4042L9.21503 16.8611L9.24831 17.0634C9.48159 18.5062 10.2035 19.8528 11.2774 20.8554L11.4285 20.9958L13.567 18.7453L13.4166 18.6045ZM11.4185 20.705C10.3747 19.7306 9.68095 18.4339 9.45247 17.0307L12.1257 16.6064C12.2589 17.4266 12.6637 18.1846 13.2742 18.7536L11.4185 20.705Z" fill="url(#paint3_linear_1702_238)"/>
<path d="M20.9299 11.616C19.9619 10.5148 18.6294 9.74907 17.1824 9.46203L16.9782 9.42139L16.9382 9.62299L16.3651 12.4521L16.5693 12.4924C17.3443 12.6473 18.0573 13.0566 18.5757 13.647L18.7126 13.8003L21.0662 11.7718L20.9299 11.616ZM18.7312 13.511C18.1808 12.8857 17.4323 12.4556 16.6106 12.2918L17.1424 9.66203C18.5488 9.94331 19.8298 10.68 20.7744 11.7504L18.7312 13.511Z" fill="url(#paint4_linear_1702_238)"/>
<path d="M22.6477 15.5436L22.6336 15.3385L22.4272 15.3513L19.5194 15.5446L19.5328 15.7484C19.5846 16.5292 19.3715 17.3171 18.9315 17.967L18.817 18.1382L21.4106 19.8582L21.5261 19.6886C22.3462 18.4732 22.745 17.0015 22.6477 15.5436ZM21.3546 19.5737L19.1056 18.0819C19.5706 17.3923 19.7955 16.5638 19.7398 15.7343L22.441 15.5577C22.5357 16.9756 22.152 18.3916 21.3546 19.5737Z" fill="url(#paint5_linear_1702_238)"/>
<path d="M13.1974 9.94788L13.0121 10.0394C11.687 10.6858 10.5987 11.762 9.94719 13.0727L9.85535 13.257L12.6569 14.6202L12.7485 14.4365C13.0976 13.7351 13.68 13.1572 14.3891 12.8122L14.5747 12.7223L13.1974 9.94788ZM12.5629 14.3463L10.1334 13.1633C10.768 11.889 11.8147 10.8513 13.1021 10.2231L14.2973 12.6279C13.5443 12.9959 12.9325 13.601 12.5629 14.3463Z" fill="url(#paint6_linear_1702_238)"/>
<path d="M17.473 19.2493L17.2826 19.3305C16.5552 19.6361 15.7338 19.6973 14.9686 19.5011L14.768 19.4493L13.9843 22.4406L14.185 22.4931C15.6131 22.8598 17.1469 22.7459 18.5053 22.1741L18.6966 22.0928L17.473 19.2493ZM14.2358 22.2944L14.9168 19.6998C15.7283 19.9072 16.592 19.8451 17.3629 19.52L18.4246 21.9853C17.1034 22.5411 15.6266 22.6502 14.2358 22.2944Z" fill="url(#paint7_linear_1702_238)"/>
<path d="M16.9955 15.8758C16.9955 16.5068 16.4806 17.0166 15.8448 17.0166C15.207 17.0166 14.6921 16.5065 14.6921 15.8758C14.6921 15.2467 15.207 14.736 15.8448 14.736C16.4806 14.7363 16.9955 15.2467 16.9955 15.8758Z" fill="url(#paint8_radial_1702_238)"/>
<path d="M15.9792 18.192C16.2469 18.192 16.464 17.9775 16.464 17.7129C16.464 17.4484 16.2469 17.2339 15.9792 17.2339C15.7115 17.2339 15.4944 17.4484 15.4944 17.7129C15.4944 17.9775 15.7115 18.192 15.9792 18.192Z" fill="url(#paint9_radial_1702_238)"/>
<path d="M14.496 15.0719C14.7638 15.0719 14.9808 14.8576 14.9808 14.5932C14.9808 14.3288 14.7638 14.1145 14.496 14.1145C14.2283 14.1145 14.0112 14.3288 14.0112 14.5932C14.0112 14.8576 14.2283 15.0719 14.496 15.0719Z" fill="url(#paint10_radial_1702_238)"/>
<path d="M17.3149 14.2985C17.3149 14.5641 17.0989 14.7788 16.8317 14.7788C16.5645 14.7788 16.3466 14.5641 16.3466 14.2985C16.3466 14.0345 16.5645 13.8188 16.8317 13.8188C17.0989 13.8188 17.3149 14.0342 17.3149 14.2985Z" fill="url(#paint11_radial_1702_238)"/>
<path d="M18.1546 16.3776C18.1546 16.6412 17.9367 16.8576 17.6698 16.8576C17.4013 16.8576 17.1853 16.6412 17.1853 16.3776C17.1853 16.1126 17.4013 15.8982 17.6698 15.8982C17.937 15.8982 18.1546 16.1126 18.1546 16.3776Z" fill="url(#paint12_radial_1702_238)"/>
<path d="M14.7354 16.7587C14.7354 17.0233 14.5187 17.2384 14.2512 17.2384C13.9831 17.2384 13.7664 17.0233 13.7664 16.7587C13.7664 16.4918 13.9831 16.2787 14.2512 16.2787C14.5187 16.2787 14.7354 16.4918 14.7354 16.7587Z" fill="url(#paint13_radial_1702_238)"/>
<path d="M15.9318 3.12927C8.86176 3.12927 3.13184 8.80287 3.13184 15.8038C3.13184 22.8022 8.86208 28.4778 15.9318 28.4778C23.0006 28.4778 28.7318 22.8022 28.7318 15.8038C28.7315 8.80319 23.0006 3.12927 15.9318 3.12927ZM15.9318 24.3709C11.1526 24.3709 7.27904 20.5344 7.27904 15.8042C7.27904 11.072 11.1526 7.23519 15.9318 7.23519C20.7107 7.23519 24.5846 11.072 24.5846 15.8042C24.5843 20.5344 20.7107 24.3709 15.9318 24.3709Z" fill="url(#paint14_radial_1702_238)"/>
<path d="M15.9319 7.79065C11.4621 7.79065 7.83905 11.3776 7.83905 15.8028C7.83905 20.2278 11.4621 23.8156 15.9319 23.8156C20.4007 23.8156 24.0227 20.2278 24.0227 15.8028C24.0224 11.3776 20.4007 7.79065 15.9319 7.79065ZM11.4186 20.4553C10.3747 19.4806 9.68097 18.1843 9.45249 16.7811L12.1258 16.3561C12.2589 17.1763 12.6637 17.9347 13.2743 18.5036L11.4186 20.4553ZM12.5629 14.0969L10.1334 12.9139C10.768 11.6384 11.8147 10.6009 13.1021 9.97369L14.2973 12.3782C13.5443 12.7462 12.9325 13.3507 12.5629 14.0969ZM14.2359 22.0441L14.9168 19.4505C15.7283 19.6582 16.592 19.5948 17.3629 19.2704L18.4247 21.7356C17.1034 22.2908 15.6266 22.4 14.2359 22.0441ZM16.6106 12.0419L17.1424 9.41209C18.5488 9.69305 19.8298 10.43 20.7744 11.5008L18.7312 13.2608C18.1808 12.6355 17.4327 12.2057 16.6106 12.0419ZM21.3546 19.3241L19.1056 17.8329C19.5706 17.1414 19.7955 16.3142 19.7399 15.4848L22.441 15.3068C22.5357 16.7248 22.152 18.1411 21.3546 19.3241Z" fill="url(#paint15_radial_1702_238)"/>
<path d="M15.9318 7.24255C11.1577 7.24255 7.28638 11.0755 7.28638 15.8029C7.28638 20.5315 11.1577 24.3645 15.9318 24.3645C20.7062 24.3645 24.5766 20.5315 24.5766 15.8029C24.5766 11.0752 20.7062 7.24255 15.9318 7.24255ZM15.9318 23.8157C11.4621 23.8157 7.83902 20.2278 7.83902 15.8029C7.83902 11.3776 11.4621 7.79071 15.9318 7.79071C20.4006 7.79071 24.0227 11.3776 24.0227 15.8029C24.0224 20.2278 20.4006 23.8157 15.9318 23.8157Z" fill="url(#paint16_linear_1702_238)"/>
<path d="M13.4166 18.3536C12.8422 17.817 12.456 17.0957 12.3289 16.3242L12.2969 16.121L12.0934 16.1536L9.21503 16.6112L9.24831 16.8141C9.48159 18.257 10.2035 19.6029 11.2774 20.6042L11.4285 20.7456L13.567 18.4963L13.4166 18.3536ZM11.4185 20.4554C10.3747 19.4807 9.68095 18.1843 9.45247 16.7811L12.1257 16.3562C12.2589 17.1763 12.6637 17.9347 13.2742 18.5037L11.4185 20.4554Z" fill="url(#paint17_linear_1702_238)"/>
<path d="M20.9299 11.366C19.9619 10.2652 18.6294 9.49914 17.1824 9.21178L16.9782 9.17114L16.9382 9.3737L16.3651 12.2025L16.5693 12.2432C17.3443 12.3977 18.0573 12.8067 18.5757 13.3964L18.7126 13.5507L21.0662 11.5209L20.9299 11.366ZM18.7312 13.2608C18.1808 12.6355 17.4323 12.2054 16.6106 12.0416L17.1424 9.41178C18.5488 9.69274 19.8298 10.4297 20.7744 11.5004L18.7312 13.2608Z" fill="url(#paint18_linear_1702_238)"/>
<path d="M22.6477 15.2935L22.6336 15.089L22.4272 15.1011L19.5193 15.2941L19.5328 15.4992C19.5846 16.2797 19.3715 17.0675 18.9315 17.7175L18.8173 17.888L21.4109 19.6074L21.5264 19.4378C22.3462 18.2224 22.7449 16.752 22.6477 15.2935ZM21.3545 19.3242L19.1056 17.833C19.5705 17.1415 19.7955 16.3143 19.7398 15.4848L22.4409 15.3069C22.5357 16.7248 22.152 18.1411 21.3545 19.3242Z" fill="url(#paint19_linear_1702_238)"/>
<path d="M13.1974 9.69824L13.0121 9.78944C11.687 10.4355 10.5987 11.5114 9.94719 12.8228L9.85535 13.0071L12.6569 14.3706L12.7485 14.1869C13.0976 13.4855 13.68 12.9085 14.3891 12.562L14.5747 12.472L13.1974 9.69824ZM12.5629 14.097L10.1334 12.914C10.768 11.6384 11.8147 10.601 13.1021 9.97376L14.2973 12.3783C13.5443 12.7463 12.9325 13.3508 12.5629 14.097Z" fill="url(#paint20_linear_1702_238)"/>
<path d="M17.473 18.9994L17.2826 19.0807C16.5552 19.3866 15.7338 19.4471 14.9686 19.2516L14.768 19.1994L13.9843 22.1911L14.185 22.2423C15.6131 22.609 17.1469 22.4964 18.5053 21.9248L18.6966 21.8426L17.473 18.9994ZM14.2358 22.0442L14.9168 19.4506C15.7283 19.6583 16.592 19.5949 17.3629 19.2704L18.4246 21.7357C17.1034 22.2909 15.6266 22.4 14.2358 22.0442Z" fill="url(#paint21_linear_1702_238)"/>
<path d="M16.9955 15.626C16.9955 16.2567 16.4806 16.7671 15.8448 16.7671C15.207 16.7671 14.6921 16.2564 14.6921 15.626C14.6921 14.9965 15.207 14.4855 15.8448 14.4855C16.4806 14.4855 16.9955 14.9965 16.9955 15.626Z" fill="url(#paint22_radial_1702_238)"/>
<path d="M16.4637 17.4618C16.4637 17.7274 16.2474 17.9424 15.9789 17.9424C15.7107 17.9424 15.4941 17.7274 15.4941 17.4618C15.4941 17.1978 15.7107 16.984 15.9789 16.984C16.2474 16.984 16.4637 17.1978 16.4637 17.4618Z" fill="url(#paint23_radial_1702_238)"/>
<path d="M14.496 14.822C14.7638 14.822 14.9808 14.6072 14.9808 14.3424C14.9808 14.0774 14.7638 13.8627 14.496 13.8627C14.2283 13.8627 14.0112 14.0774 14.0112 14.3424C14.0112 14.6072 14.2283 14.822 14.496 14.822Z" fill="url(#paint24_radial_1702_238)"/>
<path d="M17.3149 14.048C17.3149 14.3146 17.0989 14.529 16.8317 14.529C16.5645 14.529 16.3466 14.3146 16.3466 14.048C16.3466 13.7837 16.5645 13.569 16.8317 13.569C17.0989 13.569 17.3149 13.7837 17.3149 14.048Z" fill="url(#paint25_radial_1702_238)"/>
<path d="M17.6701 16.6065C17.9377 16.6065 18.1546 16.3917 18.1546 16.1268C18.1546 15.8618 17.9377 15.6471 17.6701 15.6471C17.4026 15.6471 17.1856 15.8618 17.1856 16.1268C17.1856 16.3917 17.4026 16.6065 17.6701 16.6065Z" fill="url(#paint26_radial_1702_238)"/>
<path d="M14.2509 16.9875C14.5185 16.9875 14.7354 16.7729 14.7354 16.5082C14.7354 16.2434 14.5185 16.0288 14.2509 16.0288C13.9834 16.0288 13.7664 16.2434 13.7664 16.5082C13.7664 16.7729 13.9834 16.9875 14.2509 16.9875Z" fill="url(#paint27_radial_1702_238)"/>
<defs>
<radialGradient id="paint0_radial_1702_238" cx="0" cy="0" r="1" gradientUnits="userSpaceOnUse" gradientTransform="translate(15.9311 16.0537) scale(12.8 12.6752)">
<stop offset="0.3371" stop-color="#54585D"/>
<stop offset="0.4611" stop-color="#52565B"/>
<stop offset="0.5178" stop-color="#4B4F53"/>
<stop offset="0.5608" stop-color="#404347"/>
<stop offset="0.5969" stop-color="#2F3235"/>
<stop offset="0.6283" stop-color="#1A1C1D"/>
<stop offset="0.6566" stop-color="#010101"/>
<stop offset="0.6573"/>
<stop offset="0.736" stop-color="#797E83"/>
<stop offset="0.9382" stop-color="#18171A"/>
<stop offset="1" stop-color="#808184"/>
</radialGradient>
<radialGradient id="paint1_radial_1702_238" cx="0" cy="0" r="1" gradientUnits="userSpaceOnUse" gradientTransform="translate(15.9305 16.0529) scale(8.09156 8.01265)">
<stop offset="0.5843" stop-color="#EAEBEC"/>
<stop offset="0.9382" stop-color="#65686C"/>
<stop offset="1" stop-color="#EAEBEC"/>
</radialGradient>
<linearGradient id="paint2_linear_1702_238" x1="9.50062" y1="21.8952" x2="22.5463" y2="10.0453" gradientUnits="userSpaceOnUse">
<stop stop-color="#9EA6AF"/>
<stop offset="0.3764" stop-color="white"/>
<stop offset="0.4019" stop-color="#F4F4F6"/>
<stop offset="0.4944" stop-color="#CFD2D7"/>
<stop offset="0.5809" stop-color="#B5B9C2"/>
<stop offset="0.6584" stop-color="#A6AAB5"/>
<stop offset="0.7191" stop-color="#A0A5B0"/>
<stop offset="1" stop-color="#F7F7F8"/>
</linearGradient>
<linearGradient id="paint3_linear_1702_238" x1="9.87013" y1="19.3391" x2="12.7314" y2="16.7401" gradientUnits="userSpaceOnUse">
<stop stop-color="#101116"/>
<stop offset="1" stop-color="#6F747C"/>
</linearGradient>
<linearGradient id="paint4_linear_1702_238" x1="16.6275" y1="12.7717" x2="19.617" y2="10.0562" gradientUnits="userSpaceOnUse">
<stop stop-color="#101116"/>
<stop offset="1" stop-color="#6F747C"/>
</linearGradient>
<linearGradient id="paint5_linear_1702_238" x1="19.3265" y1="18.7365" x2="22.8984" y2="15.492" gradientUnits="userSpaceOnUse">
<stop stop-color="#101116"/>
<stop offset="1" stop-color="#6F747C"/>
</linearGradient>
<linearGradient id="paint6_linear_1702_238" x1="10.6327" y1="14.1496" x2="14.1978" y2="10.9111" gradientUnits="userSpaceOnUse">
<stop stop-color="#101116"/>
<stop offset="1" stop-color="#6F747C"/>
</linearGradient>
<linearGradient id="paint7_linear_1702_238" x1="14.3774" y1="22.9106" x2="17.9645" y2="19.6524" gradientUnits="userSpaceOnUse">
<stop stop-color="#101116"/>
<stop offset="1" stop-color="#6F747C"/>
</linearGradient>
<radialGradient id="paint8_radial_1702_238" cx="0" cy="0" r="1" gradientUnits="userSpaceOnUse" gradientTransform="translate(15.8437 15.8763) scale(1.15156 1.14033)">
<stop stop-color="#848C94"/>
<stop offset="1" stop-color="#111016"/>
</radialGradient>
<radialGradient id="paint9_radial_1702_238" cx="0" cy="0" r="1" gradientUnits="userSpaceOnUse" gradientTransform="translate(15.9788 17.7123) scale(0.484352 0.479628)">
<stop stop-color="#9EA6AF"/>
<stop offset="1" stop-color="#111016"/>
</radialGradient>
<radialGradient id="paint10_radial_1702_238" cx="0" cy="0" r="1" gradientUnits="userSpaceOnUse" gradientTransform="translate(14.4958 14.5923) scale(0.48422 0.479497)">
<stop stop-color="#9EA6AF"/>
<stop offset="1" stop-color="#111016"/>
</radialGradient>
<radialGradient id="paint11_radial_1702_238" cx="0" cy="0" r="1" gradientUnits="userSpaceOnUse" gradientTransform="translate(16.8215 14.3006) scale(0.484394 0.47964)">
<stop stop-color="#9EA6AF"/>
<stop offset="1" stop-color="#111016"/>
</radialGradient>
<radialGradient id="paint12_radial_1702_238" cx="0" cy="0" r="1" gradientUnits="userSpaceOnUse" gradientTransform="translate(17.6699 16.3772) scale(0.484439 0.479715)">
<stop stop-color="#9EA6AF"/>
<stop offset="1" stop-color="#111016"/>
</radialGradient>
<radialGradient id="paint13_radial_1702_238" cx="0" cy="0" r="1" gradientUnits="userSpaceOnUse" gradientTransform="translate(14.2506 16.7583) scale(0.484439 0.479715)">
<stop stop-color="#9EA6AF"/>
<stop offset="1" stop-color="#111016"/>
</radialGradient>
<radialGradient id="paint14_radial_1702_238" cx="0" cy="0" r="1" gradientUnits="userSpaceOnUse" gradientTransform="translate(15.9311 15.8032) scale(12.7996 12.6748)">
<stop offset="0.3371" stop-color="#54585D"/>
<stop offset="0.4611" stop-color="#52565B"/>
<stop offset="0.5178" stop-color="#4B4F53"/>
<stop offset="0.5608" stop-color="#404347"/>
<stop offset="0.5969" stop-color="#2F3235"/>
<stop offset="0.6283" stop-color="#1A1C1D"/>
<stop offset="0.6566" stop-color="#010101"/>
<stop offset="0.6573"/>
<stop offset="0.736" stop-color="#797E83"/>
<stop offset="0.9382" stop-color="#18171A"/>
<stop offset="1" stop-color="#808184"/>
</radialGradient>
<radialGradient id="paint15_radial_1702_238" cx="0" cy="0" r="1" gradientUnits="userSpaceOnUse" gradientTransform="translate(15.9305 15.8028) scale(8.09156 8.01265)">
<stop offset="0.5843" stop-color="#EAEBEC"/>
<stop offset="0.9382" stop-color="#65686C"/>
<stop offset="1" stop-color="#EAEBEC"/>
</radialGradient>
<linearGradient id="paint16_linear_1702_238" x1="9.50062" y1="21.645" x2="22.5465" y2="9.79487" gradientUnits="userSpaceOnUse">
<stop stop-color="#9EA6AF"/>
<stop offset="0.3764" stop-color="white"/>
<stop offset="0.4019" stop-color="#F4F4F6"/>
<stop offset="0.4944" stop-color="#CFD2D7"/>
<stop offset="0.5809" stop-color="#B5B9C2"/>
<stop offset="0.6584" stop-color="#A6AAB5"/>
<stop offset="0.7191" stop-color="#A0A5B0"/>
<stop offset="1" stop-color="#F7F7F8"/>
</linearGradient>
<linearGradient id="paint17_linear_1702_238" x1="9.87045" y1="19.0888" x2="12.732" y2="16.4894" gradientUnits="userSpaceOnUse">
<stop stop-color="#101116"/>
<stop offset="1" stop-color="#6F747C"/>
</linearGradient>
<linearGradient id="paint18_linear_1702_238" x1="16.6272" y1="12.5216" x2="19.6167" y2="9.80593" gradientUnits="userSpaceOnUse">
<stop stop-color="#101116"/>
<stop offset="1" stop-color="#6F747C"/>
</linearGradient>
<linearGradient id="paint19_linear_1702_238" x1="19.3263" y1="18.4857" x2="22.8977" y2="15.2415" gradientUnits="userSpaceOnUse">
<stop stop-color="#101116"/>
<stop offset="1" stop-color="#6F747C"/>
</linearGradient>
<linearGradient id="paint20_linear_1702_238" x1="10.6325" y1="13.8993" x2="14.1975" y2="10.6611" gradientUnits="userSpaceOnUse">
<stop stop-color="#101116"/>
<stop offset="1" stop-color="#6F747C"/>
</linearGradient>
<linearGradient id="paint21_linear_1702_238" x1="14.3768" y1="22.6606" x2="17.9643" y2="19.4021" gradientUnits="userSpaceOnUse">
<stop stop-color="#101116"/>
<stop offset="1" stop-color="#6F747C"/>
</linearGradient>
<radialGradient id="paint22_radial_1702_238" cx="0" cy="0" r="1" gradientUnits="userSpaceOnUse" gradientTransform="translate(15.8437 15.626) scale(1.15179 1.14055)">
<stop stop-color="#848C94"/>
<stop offset="1" stop-color="#111016"/>
</radialGradient>
<radialGradient id="paint23_radial_1702_238" cx="0" cy="0" r="1" gradientUnits="userSpaceOnUse" gradientTransform="translate(15.9788 17.4628) scale(0.484352 0.479627)">
<stop stop-color="#9EA6AF"/>
<stop offset="1" stop-color="#111016"/>
</radialGradient>
<radialGradient id="paint24_radial_1702_238" cx="0" cy="0" r="1" gradientUnits="userSpaceOnUse" gradientTransform="translate(14.4958 14.3422) scale(0.48444 0.479716)">
<stop stop-color="#9EA6AF"/>
<stop offset="1" stop-color="#111016"/>
</radialGradient>
<radialGradient id="paint25_radial_1702_238" cx="0" cy="0" r="1" gradientUnits="userSpaceOnUse" gradientTransform="translate(16.8215 14.0507) scale(0.484394 0.479641)">
<stop stop-color="#9EA6AF"/>
<stop offset="1" stop-color="#111016"/>
</radialGradient>
<radialGradient id="paint26_radial_1702_238" cx="0" cy="0" r="1" gradientUnits="userSpaceOnUse" gradientTransform="translate(17.6699 16.1269) scale(0.48422 0.479497)">
<stop stop-color="#9EA6AF"/>
<stop offset="1" stop-color="#111016"/>
</radialGradient>
<radialGradient id="paint27_radial_1702_238" cx="0" cy="0" r="1" gradientUnits="userSpaceOnUse" gradientTransform="translate(14.2506 16.5078) scale(0.48422 0.479496)">
<stop stop-color="#9EA6AF"/>
<stop offset="1" stop-color="#111016"/>
</radialGradient>
</defs>
</svg>
