<svg width="64" height="64" viewBox="0 0 64 64" fill="none" xmlns="http://www.w3.org/2000/svg">
<path d="M31.8637 6.75769C17.7235 6.75769 6.26367 18.1068 6.26367 32.1087C6.26367 46.1068 17.7242 57.4585 31.8637 57.4585C46.0013 57.4585 57.4637 46.1068 57.4637 32.1087C57.463 18.1068 46.0013 6.75769 31.8637 6.75769ZM31.8637 49.2416C22.3053 49.2416 14.5581 41.5699 14.5581 32.1081C14.5581 22.6425 22.3053 14.9702 31.8637 14.9702C41.4214 14.9702 49.1693 22.6425 49.1693 32.1081C49.1686 41.5699 41.4214 49.2416 31.8637 49.2416Z" fill="url(#paint0_radial_1702_238)"/>
<path d="M31.8637 16.0806C22.9241 16.0806 15.678 23.2569 15.678 32.1049C15.678 40.9549 22.9241 48.1312 31.8637 48.1312C40.8013 48.1312 48.0454 40.9549 48.0454 32.1049C48.0448 23.2569 40.8013 16.0806 31.8637 16.0806ZM22.8371 41.4099C20.7494 39.4611 19.3619 36.8678 18.9049 34.0614L24.2515 33.2128C24.5177 34.8531 25.3273 36.3692 26.5485 37.5072L22.8371 41.4099ZM25.1257 28.6925L20.2668 26.3264C21.536 23.7779 23.6294 21.7024 26.2041 20.446L28.5945 25.2557C27.0886 25.9917 25.8649 27.2019 25.1257 28.6925ZM28.4717 44.5888L29.8336 39.3996C31.4566 39.8144 33.184 39.6902 34.7257 39.04L36.8493 43.9705C34.2067 45.0822 31.2531 45.3004 28.4717 44.5888ZM33.2211 24.5836L34.2848 19.3241C37.0976 19.8866 39.6595 21.36 41.5488 23.5008L37.4624 27.0214C36.3616 25.7715 34.8653 24.9113 33.2211 24.5836ZM42.7091 39.1475L38.2112 36.1638C39.1411 34.7846 39.591 33.1277 39.4797 31.4688L44.8819 31.1155C45.0713 33.9513 44.304 36.7833 42.7091 39.1475Z" fill="url(#paint1_radial_1702_238)"/>
<path d="M31.8637 14.9862C22.3155 14.9862 14.5728 22.6509 14.5728 32.105C14.5728 41.5629 22.3155 49.2288 31.8637 49.2288C41.4125 49.2288 49.1533 41.5629 49.1533 32.105C49.1533 22.6509 41.4125 14.9862 31.8637 14.9862ZM31.8637 48.1312C22.9241 48.1312 15.678 40.9549 15.678 32.105C15.678 23.257 22.9241 16.0806 31.8637 16.0806C40.8013 16.0806 48.0454 23.257 48.0454 32.105C48.0448 40.9549 40.8013 48.1312 31.8637 48.1312Z" fill="url(#paint2_linear_1702_238)"/>
<path d="M26.8333 37.209C25.6845 36.1338 24.912 34.6938 24.6579 33.1501L24.5939 32.7456L24.1869 32.8083L18.4301 33.7222L18.4966 34.1267C18.9632 37.0125 20.407 39.7056 22.5549 41.7107L22.8569 41.9917L27.1341 37.4906L26.8333 37.209ZM22.8371 41.4099C20.7494 39.4611 19.3619 36.8678 18.9049 34.0614L24.2515 33.2128C24.5177 34.8531 25.3273 36.3693 26.5485 37.5072L22.8371 41.4099Z" fill="url(#paint3_linear_1702_238)"/>
<path d="M41.8598 23.2321C39.9238 21.0298 37.2589 19.4983 34.3648 18.9242L33.9565 18.8429L33.8765 19.2461L32.7302 24.9044L33.1385 24.985C34.6886 25.2948 36.1145 26.1133 37.1513 27.2941L37.4253 27.6007L42.1325 23.5437L41.8598 23.2321ZM37.4624 27.0221C36.3616 25.7716 34.8646 24.9114 33.2211 24.5837L34.2848 19.3242C37.0976 19.8867 39.6595 21.3601 41.5488 23.5009L37.4624 27.0221Z" fill="url(#paint4_linear_1702_238)"/>
<path d="M45.2954 31.0874L45.2672 30.6771L44.8544 30.7027L39.0387 31.0893L39.0656 31.497C39.1693 33.0586 38.743 34.6342 37.863 35.9341L37.6339 36.2765L42.8211 39.7165L43.0522 39.3773C44.6925 36.9466 45.4899 34.0032 45.2954 31.0874ZM42.7091 39.1475L38.2112 36.1638C39.1411 34.7846 39.591 33.1277 39.4797 31.4688L44.8819 31.1155C45.0714 33.9514 44.304 36.7834 42.7091 39.1475Z" fill="url(#paint5_linear_1702_238)"/>
<path d="M26.3949 19.8956L26.0243 20.0787C23.3741 21.3715 21.1975 23.5238 19.8944 26.1453L19.7108 26.5139L25.3139 29.2403L25.497 28.873C26.1952 27.4701 27.36 26.3142 28.7783 25.6243L29.1495 25.4445L26.3949 19.8956ZM25.1258 28.6925L20.2669 26.3264C21.536 23.7779 23.6295 21.7024 26.2042 20.446L28.5946 25.2557C27.0887 25.9917 25.865 27.2019 25.1258 28.6925Z" fill="url(#paint6_linear_1702_238)"/>
<path d="M34.9459 38.4985L34.5651 38.6611C33.1104 39.2723 31.4675 39.3945 29.9373 39.0022L29.536 38.8985L27.9686 44.8813L28.3699 44.9862C31.2262 45.7197 34.2937 45.4918 37.0105 44.3481L37.3933 44.1856L34.9459 38.4985ZM28.4717 44.5888L29.8336 39.3997C31.4566 39.8144 33.184 39.6902 34.7257 39.04L36.8493 43.9705C34.2067 45.0822 31.2531 45.3005 28.4717 44.5888Z" fill="url(#paint7_linear_1702_238)"/>
<path d="M33.9911 31.7517C33.9911 33.0138 32.9613 34.0333 31.6896 34.0333C30.4141 34.0333 29.3843 33.0132 29.3843 31.7517C29.3843 30.4935 30.4141 29.472 31.6896 29.472C32.9613 29.4727 33.9911 30.4935 33.9911 31.7517Z" fill="url(#paint8_radial_1702_238)"/>
<path d="M31.9584 36.3841C32.4938 36.3841 32.928 35.955 32.928 35.426C32.928 34.8969 32.4938 34.4679 31.9584 34.4679C31.4229 34.4679 30.9888 34.8969 30.9888 35.426C30.9888 35.955 31.4229 36.3841 31.9584 36.3841Z" fill="url(#paint9_radial_1702_238)"/>
<path d="M28.992 30.144C29.5275 30.144 29.9616 29.7154 29.9616 29.1866C29.9616 28.6577 29.5275 28.2291 28.992 28.2291C28.4565 28.2291 28.0224 28.6577 28.0224 29.1866C28.0224 29.7154 28.4565 30.144 28.992 30.144Z" fill="url(#paint10_radial_1702_238)"/>
<path d="M34.6298 28.5972C34.6298 29.1284 34.1978 29.5578 33.6634 29.5578C33.129 29.5578 32.6931 29.1284 32.6931 28.5972C32.6931 28.0692 33.129 27.6378 33.6634 27.6378C34.1978 27.6378 34.6298 28.0685 34.6298 28.5972Z" fill="url(#paint11_radial_1702_238)"/>
<path d="M36.3091 32.7552C36.3091 33.2826 35.8733 33.7152 35.3395 33.7152C34.8025 33.7152 34.3705 33.2826 34.3705 32.7552C34.3705 32.2253 34.8025 31.7965 35.3395 31.7965C35.8739 31.7965 36.3091 32.2253 36.3091 32.7552Z" fill="url(#paint12_radial_1702_238)"/>
<path d="M29.4707 33.5175C29.4707 34.0468 29.0374 34.4769 28.5024 34.4769C27.9661 34.4769 27.5328 34.0468 27.5328 33.5175C27.5328 32.9837 27.9661 32.5575 28.5024 32.5575C29.0374 32.5575 29.4707 32.9837 29.4707 33.5175Z" fill="url(#paint13_radial_1702_238)"/>
<path d="M31.8637 6.25854C17.7235 6.25854 6.26367 17.6057 6.26367 31.6077C6.26367 45.6045 17.7242 56.9555 31.8637 56.9555C46.0013 56.9555 57.4637 45.6045 57.4637 31.6077C57.463 17.6064 46.0013 6.25854 31.8637 6.25854ZM31.8637 48.7418C22.3053 48.7418 14.5581 41.0688 14.5581 31.6083C14.5581 22.144 22.3053 14.4704 31.8637 14.4704C41.4214 14.4704 49.1693 22.144 49.1693 31.6083C49.1686 41.0688 41.4214 48.7418 31.8637 48.7418Z" fill="url(#paint14_radial_1702_238)"/>
<path d="M31.8637 15.5814C22.9241 15.5814 15.678 22.7552 15.678 31.6058C15.678 40.4557 22.9241 47.6314 31.8637 47.6314C40.8013 47.6314 48.0454 40.4557 48.0454 31.6058C48.0448 22.7552 40.8013 15.5814 31.8637 15.5814ZM22.8371 40.9108C20.7494 38.9613 19.3619 36.3687 18.9049 33.5623L24.2515 32.7124C24.5177 34.3527 25.3273 35.8695 26.5485 37.0074L22.8371 40.9108ZM25.1257 28.194L20.2668 25.8279C21.536 23.2768 23.6294 21.2019 26.2041 19.9475L28.5945 24.7565C27.0886 25.4925 25.8649 26.7015 25.1257 28.194ZM28.4717 44.0884L29.8336 38.9012C31.4566 39.3165 33.184 39.1898 34.7257 38.5408L36.8493 43.4714C34.2067 44.5818 31.2531 44.8 28.4717 44.0884ZM33.2211 24.0839L34.2848 18.8243C37.0976 19.3862 39.6595 20.8601 41.5488 23.0016L37.4624 26.5216C36.3616 25.2711 34.8653 24.4116 33.2211 24.0839ZM42.7091 38.6484L38.2112 35.666C39.1411 34.2829 39.591 32.6285 39.4797 30.9696L44.8819 30.6138C45.0713 33.4496 44.304 36.2823 42.7091 38.6484Z" fill="url(#paint15_radial_1702_238)"/>
<path d="M31.8637 14.4851C22.3155 14.4851 14.5728 22.151 14.5728 31.6058C14.5728 41.063 22.3155 48.729 31.8637 48.729C41.4125 48.729 49.1533 41.063 49.1533 31.6058C49.1533 22.1504 41.4125 14.4851 31.8637 14.4851ZM31.8637 47.6314C22.9241 47.6314 15.678 40.4557 15.678 31.6058C15.678 22.7552 22.9241 15.5814 31.8637 15.5814C40.8013 15.5814 48.0454 22.7552 48.0454 31.6058C48.0448 40.4557 40.8013 47.6314 31.8637 47.6314Z" fill="url(#paint16_linear_1702_238)"/>
<path d="M26.8333 36.7072C25.6845 35.6339 24.912 34.1914 24.6579 32.6483L24.5939 32.2419L24.1869 32.3072L18.4301 33.2224L18.4966 33.6282C18.9632 36.5139 20.407 39.2058 22.5549 41.2083L22.8569 41.4912L27.1341 36.9927L26.8333 36.7072ZM22.8371 40.9107C20.7494 38.9613 19.3619 36.3687 18.9049 33.5623L24.2515 32.7123C24.5177 34.3527 25.3273 35.8695 26.5485 37.0074L22.8371 40.9107Z" fill="url(#paint17_linear_1702_238)"/>
<path d="M41.8598 22.7322C39.9238 20.5306 37.2589 18.9984 34.3648 18.4237L33.9565 18.3424L33.8765 18.7475L32.7302 24.4051L33.1385 24.4864C34.6886 24.7955 36.1145 25.6135 37.1513 26.793L37.4253 27.1015L42.1325 23.0419L41.8598 22.7322ZM37.4624 26.5216C36.3616 25.2711 34.8646 24.4109 33.2211 24.0832L34.2848 18.8237C37.0976 19.3856 39.6595 20.8595 41.5488 23.001L37.4624 26.5216Z" fill="url(#paint18_linear_1702_238)"/>
<path d="M45.2954 30.5869L45.2672 30.178L44.8544 30.2023L39.0387 30.5882L39.0656 30.9985C39.1693 32.5594 38.7431 34.1351 37.8631 35.4349L37.6346 35.7761L42.8218 39.2148L43.0528 38.8756C44.6925 36.4449 45.4899 33.5041 45.2954 30.5869ZM42.7091 38.6484L38.2112 35.666C39.1411 34.2829 39.5911 32.6285 39.4797 30.9697L44.8819 30.6138C45.0714 33.4497 44.304 36.2823 42.7091 38.6484Z" fill="url(#paint19_linear_1702_238)"/>
<path d="M26.3949 19.3964L26.0243 19.5788C23.3741 20.8709 21.1975 23.0227 19.8944 25.6454L19.7108 26.014L25.3139 28.7411L25.497 28.3737C26.1952 26.9708 27.36 25.8169 28.7783 25.1238L29.1495 24.9439L26.3949 19.3964ZM25.1258 28.1939L20.2669 25.8278C21.536 23.2767 23.6295 21.2018 26.2042 19.9474L28.5946 24.7564C27.0887 25.4924 25.865 26.7014 25.1258 28.1939Z" fill="url(#paint20_linear_1702_238)"/>
<path d="M34.9459 37.9988L34.5651 38.1613C33.1104 38.7732 31.4675 38.8941 29.9373 38.5031L29.536 38.3988L27.9686 44.3821L28.3699 44.4845C31.2262 45.218 34.2937 44.9927 37.0105 43.8497L37.3933 43.6852L34.9459 37.9988ZM28.4717 44.0884L29.8336 38.9012C31.4566 39.3165 33.184 39.1898 34.7257 38.5409L36.8493 43.4714C34.2067 44.5818 31.2531 44.8001 28.4717 44.0884Z" fill="url(#paint21_linear_1702_238)"/>
<path d="M33.9911 31.2518C33.9911 32.5132 32.9613 33.534 31.6896 33.534C30.4141 33.534 29.3843 32.5126 29.3843 31.2518C29.3843 29.9929 30.4141 28.9708 31.6896 28.9708C32.9613 28.9708 33.9911 29.9929 33.9911 31.2518Z" fill="url(#paint22_radial_1702_238)"/>
<path d="M32.9274 34.9235C32.9274 35.4547 32.4947 35.8848 31.9578 35.8848C31.4214 35.8848 30.9882 35.4547 30.9882 34.9235C30.9882 34.3955 31.4214 33.968 31.9578 33.968C32.4947 33.968 32.9274 34.3955 32.9274 34.9235Z" fill="url(#paint23_radial_1702_238)"/>
<path d="M28.992 29.6442C29.5275 29.6442 29.9616 29.2145 29.9616 28.6848C29.9616 28.1549 29.5275 27.7255 28.992 27.7255C28.4565 27.7255 28.0224 28.1549 28.0224 28.6848C28.0224 29.2145 28.4565 29.6442 28.992 29.6442Z" fill="url(#paint24_radial_1702_238)"/>
<path d="M34.6298 28.096C34.6298 28.6291 34.1978 29.0579 33.6634 29.0579C33.129 29.0579 32.6931 28.6291 32.6931 28.096C32.6931 27.5674 33.129 27.1379 33.6634 27.1379C34.1978 27.1379 34.6298 27.5674 34.6298 28.096Z" fill="url(#paint25_radial_1702_238)"/>
<path d="M35.3402 33.2128C35.8754 33.2128 36.3091 32.7833 36.3091 32.2534C36.3091 31.7235 35.8754 31.2941 35.3402 31.2941C34.8051 31.2941 34.3712 31.7235 34.3712 32.2534C34.3712 32.7833 34.8051 33.2128 35.3402 33.2128Z" fill="url(#paint26_radial_1702_238)"/>
<path d="M28.5017 33.9751C29.037 33.9751 29.4707 33.5458 29.4707 33.0163C29.4707 32.4868 29.037 32.0576 28.5017 32.0576C27.9667 32.0576 27.5328 32.4868 27.5328 33.0163C27.5328 33.5458 27.9667 33.9751 28.5017 33.9751Z" fill="url(#paint27_radial_1702_238)"/>
<defs>
<radialGradient id="paint0_radial_1702_238" cx="0" cy="0" r="1" gradientUnits="userSpaceOnUse" gradientTransform="translate(31.8622 32.1073) scale(25.6 25.3504)">
<stop offset="0.3371" stop-color="#54585D"/>
<stop offset="0.4611" stop-color="#52565B"/>
<stop offset="0.5178" stop-color="#4B4F53"/>
<stop offset="0.5608" stop-color="#404347"/>
<stop offset="0.5969" stop-color="#2F3235"/>
<stop offset="0.6283" stop-color="#1A1C1D"/>
<stop offset="0.6566" stop-color="#010101"/>
<stop offset="0.6573"/>
<stop offset="0.736" stop-color="#797E83"/>
<stop offset="0.9382" stop-color="#18171A"/>
<stop offset="1" stop-color="#808184"/>
</radialGradient>
<radialGradient id="paint1_radial_1702_238" cx="0" cy="0" r="1" gradientUnits="userSpaceOnUse" gradientTransform="translate(31.8609 32.1058) scale(16.1831 16.0253)">
<stop offset="0.5843" stop-color="#EAEBEC"/>
<stop offset="0.9382" stop-color="#65686C"/>
<stop offset="1" stop-color="#EAEBEC"/>
</radialGradient>
<linearGradient id="paint2_linear_1702_238" x1="19.0012" y1="43.7905" x2="45.0927" y2="20.0907" gradientUnits="userSpaceOnUse">
<stop stop-color="#9EA6AF"/>
<stop offset="0.3764" stop-color="white"/>
<stop offset="0.4019" stop-color="#F4F4F6"/>
<stop offset="0.4944" stop-color="#CFD2D7"/>
<stop offset="0.5809" stop-color="#B5B9C2"/>
<stop offset="0.6584" stop-color="#A6AAB5"/>
<stop offset="0.7191" stop-color="#A0A5B0"/>
<stop offset="1" stop-color="#F7F7F8"/>
</linearGradient>
<linearGradient id="paint3_linear_1702_238" x1="19.7403" y1="38.6782" x2="25.4628" y2="33.4801" gradientUnits="userSpaceOnUse">
<stop stop-color="#101116"/>
<stop offset="1" stop-color="#6F747C"/>
</linearGradient>
<linearGradient id="paint4_linear_1702_238" x1="33.255" y1="25.5435" x2="39.2339" y2="20.1125" gradientUnits="userSpaceOnUse">
<stop stop-color="#101116"/>
<stop offset="1" stop-color="#6F747C"/>
</linearGradient>
<linearGradient id="paint5_linear_1702_238" x1="38.653" y1="37.4731" x2="45.7969" y2="30.9841" gradientUnits="userSpaceOnUse">
<stop stop-color="#101116"/>
<stop offset="1" stop-color="#6F747C"/>
</linearGradient>
<linearGradient id="paint6_linear_1702_238" x1="21.2654" y1="28.2991" x2="28.3957" y2="21.8221" gradientUnits="userSpaceOnUse">
<stop stop-color="#101116"/>
<stop offset="1" stop-color="#6F747C"/>
</linearGradient>
<linearGradient id="paint7_linear_1702_238" x1="28.7548" y1="45.8212" x2="35.9289" y2="39.3047" gradientUnits="userSpaceOnUse">
<stop stop-color="#101116"/>
<stop offset="1" stop-color="#6F747C"/>
</linearGradient>
<radialGradient id="paint8_radial_1702_238" cx="0" cy="0" r="1" gradientUnits="userSpaceOnUse" gradientTransform="translate(31.6875 31.7528) scale(2.30313 2.28066)">
<stop stop-color="#848C94"/>
<stop offset="1" stop-color="#111016"/>
</radialGradient>
<radialGradient id="paint9_radial_1702_238" cx="0" cy="0" r="1" gradientUnits="userSpaceOnUse" gradientTransform="translate(31.9575 35.4247) scale(0.968704 0.959257)">
<stop stop-color="#9EA6AF"/>
<stop offset="1" stop-color="#111016"/>
</radialGradient>
<radialGradient id="paint10_radial_1702_238" cx="0" cy="0" r="1" gradientUnits="userSpaceOnUse" gradientTransform="translate(28.9916 29.1846) scale(0.96844 0.958993)">
<stop stop-color="#9EA6AF"/>
<stop offset="1" stop-color="#111016"/>
</radialGradient>
<radialGradient id="paint11_radial_1702_238" cx="0" cy="0" r="1" gradientUnits="userSpaceOnUse" gradientTransform="translate(33.6431 28.6012) scale(0.968788 0.959281)">
<stop stop-color="#9EA6AF"/>
<stop offset="1" stop-color="#111016"/>
</radialGradient>
<radialGradient id="paint12_radial_1702_238" cx="0" cy="0" r="1" gradientUnits="userSpaceOnUse" gradientTransform="translate(35.3397 32.7546) scale(0.968878 0.95943)">
<stop stop-color="#9EA6AF"/>
<stop offset="1" stop-color="#111016"/>
</radialGradient>
<radialGradient id="paint13_radial_1702_238" cx="0" cy="0" r="1" gradientUnits="userSpaceOnUse" gradientTransform="translate(28.5011 33.5166) scale(0.968878 0.95943)">
<stop stop-color="#9EA6AF"/>
<stop offset="1" stop-color="#111016"/>
</radialGradient>
<radialGradient id="paint14_radial_1702_238" cx="0" cy="0" r="1" gradientUnits="userSpaceOnUse" gradientTransform="translate(31.8622 31.6064) scale(25.5991 25.3495)">
<stop offset="0.3371" stop-color="#54585D"/>
<stop offset="0.4611" stop-color="#52565B"/>
<stop offset="0.5178" stop-color="#4B4F53"/>
<stop offset="0.5608" stop-color="#404347"/>
<stop offset="0.5969" stop-color="#2F3235"/>
<stop offset="0.6283" stop-color="#1A1C1D"/>
<stop offset="0.6566" stop-color="#010101"/>
<stop offset="0.6573"/>
<stop offset="0.736" stop-color="#797E83"/>
<stop offset="0.9382" stop-color="#18171A"/>
<stop offset="1" stop-color="#808184"/>
</radialGradient>
<radialGradient id="paint15_radial_1702_238" cx="0" cy="0" r="1" gradientUnits="userSpaceOnUse" gradientTransform="translate(31.8609 31.6058) scale(16.1831 16.0253)">
<stop offset="0.5843" stop-color="#EAEBEC"/>
<stop offset="0.9382" stop-color="#65686C"/>
<stop offset="1" stop-color="#EAEBEC"/>
</radialGradient>
<linearGradient id="paint16_linear_1702_238" x1="19.0012" y1="43.29" x2="45.0931" y2="19.5897" gradientUnits="userSpaceOnUse">
<stop stop-color="#9EA6AF"/>
<stop offset="0.3764" stop-color="white"/>
<stop offset="0.4019" stop-color="#F4F4F6"/>
<stop offset="0.4944" stop-color="#CFD2D7"/>
<stop offset="0.5809" stop-color="#B5B9C2"/>
<stop offset="0.6584" stop-color="#A6AAB5"/>
<stop offset="0.7191" stop-color="#A0A5B0"/>
<stop offset="1" stop-color="#F7F7F8"/>
</linearGradient>
<linearGradient id="paint17_linear_1702_238" x1="19.7409" y1="38.1775" x2="25.4641" y2="32.9788" gradientUnits="userSpaceOnUse">
<stop stop-color="#101116"/>
<stop offset="1" stop-color="#6F747C"/>
</linearGradient>
<linearGradient id="paint18_linear_1702_238" x1="33.2544" y1="25.0432" x2="39.2335" y2="19.612" gradientUnits="userSpaceOnUse">
<stop stop-color="#101116"/>
<stop offset="1" stop-color="#6F747C"/>
</linearGradient>
<linearGradient id="paint19_linear_1702_238" x1="38.6526" y1="36.9714" x2="45.7954" y2="30.483" gradientUnits="userSpaceOnUse">
<stop stop-color="#101116"/>
<stop offset="1" stop-color="#6F747C"/>
</linearGradient>
<linearGradient id="paint20_linear_1702_238" x1="21.2651" y1="27.7986" x2="28.3951" y2="21.3221" gradientUnits="userSpaceOnUse">
<stop stop-color="#101116"/>
<stop offset="1" stop-color="#6F747C"/>
</linearGradient>
<linearGradient id="paint21_linear_1702_238" x1="28.7537" y1="45.3212" x2="35.9285" y2="38.8041" gradientUnits="userSpaceOnUse">
<stop stop-color="#101116"/>
<stop offset="1" stop-color="#6F747C"/>
</linearGradient>
<radialGradient id="paint22_radial_1702_238" cx="0" cy="0" r="1" gradientUnits="userSpaceOnUse" gradientTransform="translate(31.6875 31.2518) scale(2.30357 2.28111)">
<stop stop-color="#848C94"/>
<stop offset="1" stop-color="#111016"/>
</radialGradient>
<radialGradient id="paint23_radial_1702_238" cx="0" cy="0" r="1" gradientUnits="userSpaceOnUse" gradientTransform="translate(31.9575 34.9257) scale(0.968704 0.959255)">
<stop stop-color="#9EA6AF"/>
<stop offset="1" stop-color="#111016"/>
</radialGradient>
<radialGradient id="paint24_radial_1702_238" cx="0" cy="0" r="1" gradientUnits="userSpaceOnUse" gradientTransform="translate(28.9916 28.6846) scale(0.968879 0.959431)">
<stop stop-color="#9EA6AF"/>
<stop offset="1" stop-color="#111016"/>
</radialGradient>
<radialGradient id="paint25_radial_1702_238" cx="0" cy="0" r="1" gradientUnits="userSpaceOnUse" gradientTransform="translate(33.6431 28.1014) scale(0.968788 0.959282)">
<stop stop-color="#9EA6AF"/>
<stop offset="1" stop-color="#111016"/>
</radialGradient>
<radialGradient id="paint26_radial_1702_238" cx="0" cy="0" r="1" gradientUnits="userSpaceOnUse" gradientTransform="translate(35.3397 32.2536) scale(0.968439 0.958995)">
<stop stop-color="#9EA6AF"/>
<stop offset="1" stop-color="#111016"/>
</radialGradient>
<radialGradient id="paint27_radial_1702_238" cx="0" cy="0" r="1" gradientUnits="userSpaceOnUse" gradientTransform="translate(28.5011 33.0157) scale(0.968439 0.958993)">
<stop stop-color="#9EA6AF"/>
<stop offset="1" stop-color="#111016"/>
</radialGradient>
</defs>
</svg>
