<svg width="157" height="84" viewBox="0 0 157 84" fill="none" xmlns="http://www.w3.org/2000/svg">
<path d="M10.6909 18.8677H15.4487L26.1538 41H21.4385L19.6685 37.2759H6.74023L5.02686 41H0.297363L10.6909 18.8677ZM17.8984 33.5801L13.1123 23.5264L8.45361 33.5801H17.8984ZM26.6353 18.8677H31.6055L38.5581 35.7466L45.5107 18.8677H50.481L40.7812 41H36.335L26.6353 18.8677ZM60.478 22.8042H52.3076V18.8677H73.1372V22.8042H64.9668V41H60.478V22.8042ZM76.6348 29.8701C76.6348 28.1992 76.9416 26.6699 77.5552 25.2822C78.1688 23.8945 79.0278 22.7051 80.1323 21.7139C81.2463 20.7132 82.5773 19.9391 84.1255 19.3916C85.6831 18.8441 87.4059 18.5703 89.2939 18.5703C91.1725 18.5703 92.8906 18.8441 94.4482 19.3916C96.0059 19.9391 97.3369 20.7132 98.4414 21.7139C99.5553 22.7051 100.419 23.8945 101.033 25.2822C101.646 26.6699 101.953 28.1992 101.953 29.8701C101.953 31.5505 101.646 33.0939 101.033 34.5005C100.419 35.8976 99.5553 37.1012 98.4414 38.1113C97.3369 39.1214 96.0059 39.9097 94.4482 40.4761C92.8906 41.033 91.1725 41.3115 89.2939 41.3115C87.4059 41.3115 85.6831 41.033 84.1255 40.4761C82.5773 39.9097 81.2463 39.1214 80.1323 38.1113C79.0278 37.1012 78.1688 35.8976 77.5552 34.5005C76.9416 33.0939 76.6348 31.5505 76.6348 29.8701ZM81.1235 29.8701C81.1235 31.0124 81.3265 32.0413 81.7324 32.957C82.1478 33.8727 82.7189 34.6562 83.4458 35.3076C84.1821 35.9495 85.0459 36.4451 86.0371 36.7944C87.0378 37.1437 88.1234 37.3184 89.2939 37.3184C90.4645 37.3184 91.5454 37.1437 92.5366 36.7944C93.5373 36.4451 94.401 35.9495 95.1279 35.3076C95.8548 34.6562 96.4259 33.8727 96.8413 32.957C97.2567 32.0413 97.4644 31.0124 97.4644 29.8701C97.4644 28.7279 97.2567 27.7036 96.8413 26.7974C96.4259 25.8911 95.8548 25.1265 95.1279 24.5034C94.401 23.8709 93.5373 23.3895 92.5366 23.0591C91.5454 22.7287 90.4645 22.5635 89.2939 22.5635C88.1234 22.5635 87.0378 22.7287 86.0371 23.0591C85.0459 23.3895 84.1821 23.8709 83.4458 24.5034C82.7189 25.1265 82.1478 25.8911 81.7324 26.7974C81.3265 27.7036 81.1235 28.7279 81.1235 29.8701Z" fill="#FFEA2E"/>
<path d="M4.17725 70.4155C4.97965 70.8687 5.7915 71.2793 6.61279 71.6475C7.44352 72.0062 8.30257 72.313 9.18994 72.5679C10.0773 72.8133 11.0072 73.0021 11.9795 73.1343C12.9613 73.2664 14.0044 73.3325 15.1089 73.3325C16.4399 73.3325 17.5728 73.2476 18.5073 73.0776C19.4419 72.8983 20.2018 72.6576 20.7871 72.3555C21.3818 72.0439 21.8114 71.6758 22.0757 71.251C22.3494 70.8262 22.4863 70.3636 22.4863 69.8633C22.4863 69.0609 22.1512 68.4284 21.481 67.9658C20.8107 67.4938 19.777 67.2578 18.3799 67.2578C17.7663 67.2578 17.1196 67.3003 16.4399 67.3853C15.7603 67.4608 15.0711 67.5457 14.3726 67.6401C13.6834 67.7345 12.999 67.8242 12.3193 67.9092C11.6491 67.9847 11.0166 68.0225 10.4219 68.0225C9.43066 68.0225 8.47721 67.895 7.56152 67.6401C6.65527 67.3853 5.84814 67.0029 5.14014 66.4932C4.44157 65.9834 3.8846 65.3462 3.46924 64.5815C3.05387 63.8169 2.84619 62.9248 2.84619 61.9053C2.84619 61.3011 2.92643 60.7017 3.08691 60.1069C3.25684 59.5122 3.52116 58.9458 3.87988 58.4077C4.24805 57.8602 4.72005 57.3551 5.2959 56.8926C5.87174 56.4206 6.56559 56.0146 7.37744 55.6748C8.19873 55.335 9.14274 55.0706 10.2095 54.8818C11.2856 54.6836 12.5081 54.5845 13.877 54.5845C14.8682 54.5845 15.8641 54.6411 16.8647 54.7544C17.8654 54.8582 18.8377 55.0093 19.7817 55.2075C20.7352 55.4058 21.6509 55.6465 22.5288 55.9297C23.4067 56.2035 24.2233 56.5103 24.9785 56.8501L23.0103 60.4751C22.3872 60.2013 21.717 59.9512 20.9995 59.7246C20.2821 59.4886 19.5316 59.2856 18.748 59.1157C17.9645 58.9458 17.1527 58.8136 16.3125 58.7192C15.4818 58.6154 14.6322 58.5635 13.7637 58.5635C12.527 58.5635 11.5075 58.6532 10.7051 58.8325C9.91211 59.0119 9.27962 59.2432 8.80762 59.5264C8.33561 59.8001 8.00521 60.1117 7.81641 60.4609C7.63704 60.8008 7.54736 61.1406 7.54736 61.4805C7.54736 62.1413 7.84473 62.6841 8.43945 63.1089C9.03418 63.5243 9.94043 63.7319 11.1582 63.7319C11.6491 63.7319 12.2108 63.6989 12.8433 63.6328C13.4852 63.5573 14.1554 63.4771 14.854 63.3921C15.562 63.3071 16.2795 63.2316 17.0063 63.1655C17.7427 63.09 18.4554 63.0522 19.1445 63.0522C20.4473 63.0522 21.599 63.1986 22.5996 63.4912C23.6097 63.7839 24.4546 64.2039 25.1343 64.7515C25.814 65.2896 26.3285 65.9456 26.6777 66.7197C27.027 67.4844 27.2017 68.3434 27.2017 69.2969C27.2017 70.5713 26.9043 71.7088 26.3096 72.7095C25.7243 73.7007 24.8841 74.5409 23.7891 75.23C22.7035 75.9097 21.3913 76.4289 19.8525 76.7876C18.3138 77.1369 16.6004 77.3115 14.7124 77.3115C13.4663 77.3115 12.2485 77.2313 11.0591 77.0708C9.86963 76.9198 8.72738 76.7026 7.63232 76.4194C6.54671 76.1268 5.5083 75.7822 4.51709 75.3857C3.53532 74.9798 2.62435 74.5361 1.78418 74.0547L4.17725 70.4155ZM32.1436 54.8677H36.6323V66.3232L48.3145 54.8677H54.0635L43.1602 65.4312L54.0635 77H48.0879L39.9316 68.5605L36.6323 71.7466V77H32.1436V54.8677ZM55.437 54.8677H59.9258V67.0596C59.9258 68.0602 60.0627 68.9523 60.3364 69.7358C60.6102 70.5099 61.0161 71.166 61.5542 71.7041C62.1017 72.2422 62.7767 72.6528 63.5791 72.936C64.3815 73.2098 65.3161 73.3467 66.3828 73.3467C67.4401 73.3467 68.37 73.2098 69.1724 72.936C69.9842 72.6528 70.6592 72.2422 71.1973 71.7041C71.7448 71.166 72.1554 70.5099 72.4292 69.7358C72.703 68.9523 72.8398 68.0602 72.8398 67.0596V54.8677H77.3286V67.5977C77.3286 69.0514 77.0832 70.373 76.5923 71.5625C76.1014 72.752 75.3887 73.7715 74.4541 74.6211C73.5195 75.4707 72.3726 76.1268 71.0132 76.5894C69.6632 77.0519 68.1198 77.2832 66.3828 77.2832C64.6458 77.2832 63.0977 77.0519 61.7383 76.5894C60.3883 76.1268 59.2461 75.4707 58.3115 74.6211C57.377 73.7715 56.6642 72.752 56.1733 71.5625C55.6825 70.373 55.437 69.0514 55.437 67.5977V54.8677ZM82.8086 54.8677H94.4766C96.1758 54.8677 97.6484 55.0518 98.8945 55.4199C100.141 55.7881 101.174 56.3215 101.996 57.02C102.817 57.7091 103.426 58.554 103.822 59.5547C104.228 60.5553 104.431 61.6834 104.431 62.939C104.431 64.119 104.233 65.2093 103.836 66.21C103.44 67.2106 102.831 68.0791 102.01 68.8154C101.198 69.5423 100.169 70.1134 98.9229 70.5288C97.6768 70.9347 96.2041 71.1377 94.5049 71.1377L87.2974 71.1235V77H82.8086V54.8677ZM94.5898 67.2437C95.4395 67.2437 96.1805 67.1445 96.813 66.9463C97.4549 66.7386 97.9883 66.4507 98.4131 66.0825C98.8473 65.7049 99.1683 65.2518 99.376 64.7231C99.5931 64.1851 99.7017 63.5903 99.7017 62.939C99.7017 61.6268 99.2721 60.6073 98.4131 59.8804C97.5635 59.144 96.2891 58.7759 94.5898 58.7759H87.2974V67.2437H94.5898ZM109.345 54.8677H113.833V66.3232L125.516 54.8677H131.265L120.361 65.4312L131.265 77H125.289L117.133 68.5605L113.833 71.7466V77H109.345V54.8677ZM141.021 54.8677H145.779L156.484 77H151.769L149.999 73.2759H137.07L135.357 77H130.627L141.021 54.8677ZM148.229 69.5801L143.442 59.5264L138.784 69.5801H148.229Z" fill="black"/>
<path d="M132.898 5.06836C122.293 5.06836 113.698 13.5802 113.698 24.0816C113.698 34.5802 122.293 43.094 132.898 43.094C143.501 43.094 152.098 34.5802 152.098 24.0816C152.097 13.5802 143.501 5.06836 132.898 5.06836ZM132.898 36.9313C125.729 36.9313 119.919 31.1775 119.919 24.0812C119.919 16.982 125.729 11.2277 132.898 11.2277C140.066 11.2277 145.877 16.982 145.877 24.0812C145.876 31.1775 140.066 36.9313 132.898 36.9313Z" fill="url(#paint0_radial_1703_298)"/>
<path d="M132.898 12.0605C126.193 12.0605 120.758 17.4428 120.758 24.0788C120.758 30.7163 126.193 36.0985 132.898 36.0985C139.601 36.0985 145.034 30.7163 145.034 24.0788C145.033 17.4428 139.601 12.0605 132.898 12.0605ZM126.128 31.0575C124.562 29.5959 123.521 27.6509 123.178 25.5461L127.188 24.9097C127.388 26.1399 127.995 27.277 128.911 28.1305L126.128 31.0575ZM127.844 21.5195L124.2 19.7449C125.152 17.8335 126.722 16.2769 128.653 15.3346L130.446 18.9419C129.316 19.4939 128.398 20.4015 127.844 21.5195ZM130.354 33.4417L131.375 29.5498C132.592 29.8609 133.888 29.7677 135.044 29.2801L136.637 32.978C134.655 33.8117 132.44 33.9754 130.354 33.4417ZM133.916 18.4378L134.713 14.4932C136.823 14.915 138.744 16.0201 140.161 17.6257L137.097 20.2661C136.271 19.3287 135.149 18.6836 133.916 18.4378ZM141.032 29.3607L137.658 27.1229C138.356 26.0885 138.693 24.8459 138.61 23.6017L142.661 23.3367C142.803 25.4636 142.228 27.5876 141.032 29.3607Z" fill="url(#paint1_radial_1703_298)"/>
<path d="M132.898 11.2397C125.737 11.2397 119.93 16.9883 119.93 24.0788C119.93 31.1723 125.737 36.9217 132.898 36.9217C140.059 36.9217 145.865 31.1723 145.865 24.0788C145.865 16.9883 140.059 11.2397 132.898 11.2397ZM132.898 36.0985C126.193 36.0985 120.759 30.7163 120.759 24.0788C120.759 17.4428 126.193 12.0605 132.898 12.0605C139.601 12.0605 145.034 17.4428 145.034 24.0788C145.034 30.7163 139.601 36.0985 132.898 36.0985Z" fill="url(#paint2_linear_1703_298)"/>
<path d="M129.125 27.9066C128.264 27.1002 127.684 26.0202 127.494 24.8625L127.446 24.5591L127.14 24.6061L122.823 25.2915L122.873 25.5949C123.223 27.7593 124.305 29.7791 125.916 31.2829L126.143 31.4937L129.351 28.1178L129.125 27.9066ZM126.128 31.0573C124.562 29.5957 123.522 27.6507 123.179 25.5459L127.189 24.9095C127.388 26.1397 127.996 27.2769 128.912 28.1303L126.128 31.0573Z" fill="url(#paint3_linear_1703_298)"/>
<path d="M140.395 17.424C138.943 15.7723 136.944 14.6236 134.774 14.1931L134.468 14.1321L134.408 14.4345L133.548 18.6782L133.854 18.7387C135.017 18.971 136.086 19.5849 136.864 20.4705L137.069 20.7004L140.6 17.6577L140.395 17.424ZM137.097 20.2665C136.271 19.3286 135.149 18.6835 133.916 18.4377L134.714 14.4931C136.823 14.9149 138.745 16.02 140.162 17.6256L137.097 20.2665Z" fill="url(#paint4_linear_1703_298)"/>
<path d="M142.972 23.3155L142.951 23.0078L142.641 23.027L138.279 23.317L138.299 23.6227C138.377 24.7939 138.057 25.9756 137.397 26.9506L137.226 27.2074L141.116 29.7874L141.289 29.533C142.52 27.7099 143.118 25.5024 142.972 23.3155ZM141.032 29.3606L137.659 27.1228C138.356 26.0884 138.693 24.8458 138.61 23.6016L142.662 23.3366C142.804 25.4635 142.228 27.5875 141.032 29.3606Z" fill="url(#paint5_linear_1703_298)"/>
<path d="M128.796 14.9216L128.518 15.059C126.531 16.0286 124.898 17.6428 123.921 19.6089L123.783 19.8854L127.986 21.9302L128.123 21.6547C128.647 20.6025 129.52 19.7356 130.584 19.2182L130.862 19.0833L128.796 14.9216ZM127.844 21.5193L124.2 19.7447C125.152 17.8334 126.722 16.2767 128.653 15.3344L130.446 18.9417C129.317 19.4937 128.399 20.4014 127.844 21.5193Z" fill="url(#paint6_linear_1703_298)"/>
<path d="M135.21 28.8738L134.924 28.9957C133.833 29.4541 132.601 29.5458 131.453 29.2516L131.152 29.1738L129.977 33.6609L130.278 33.7396C132.42 34.2897 134.72 34.1188 136.758 33.261L137.045 33.1391L135.21 28.8738ZM130.354 33.4415L131.375 29.5497C132.593 29.8607 133.888 29.7676 135.044 29.2799L136.637 32.9778C134.655 33.8116 132.44 33.9753 130.354 33.4415Z" fill="url(#paint7_linear_1703_298)"/>
<path d="M134.493 23.8138C134.493 24.7604 133.721 25.525 132.767 25.525C131.81 25.525 131.038 24.7599 131.038 23.8138C131.038 22.8701 131.81 22.104 132.767 22.104C133.721 22.1045 134.493 22.8701 134.493 23.8138Z" fill="url(#paint8_radial_1703_298)"/>
<path d="M132.969 27.288C133.37 27.288 133.696 26.9662 133.696 26.5694C133.696 26.1726 133.37 25.8508 132.969 25.8508C132.567 25.8508 132.242 26.1726 132.242 26.5694C132.242 26.9662 132.567 27.288 132.969 27.288Z" fill="url(#paint9_radial_1703_298)"/>
<path d="M130.744 22.608C131.145 22.608 131.471 22.2866 131.471 21.89C131.471 21.4933 131.145 21.1719 130.744 21.1719C130.342 21.1719 130.017 21.4933 130.017 21.89C130.017 22.2866 130.342 22.608 130.744 22.608Z" fill="url(#paint10_radial_1703_298)"/>
<path d="M134.973 21.4478C134.973 21.8462 134.649 22.1683 134.248 22.1683C133.847 22.1683 133.52 21.8462 133.52 21.4478C133.52 21.0518 133.847 20.7283 134.248 20.7283C134.649 20.7283 134.973 21.0513 134.973 21.4478Z" fill="url(#paint11_radial_1703_298)"/>
<path d="M136.232 24.5664C136.232 24.962 135.905 25.2864 135.505 25.2864C135.102 25.2864 134.778 24.962 134.778 24.5664C134.778 24.169 135.102 23.8474 135.505 23.8474C135.905 23.8474 136.232 24.169 136.232 24.5664Z" fill="url(#paint12_radial_1703_298)"/>
<path d="M131.103 25.1382C131.103 25.5352 130.778 25.8578 130.377 25.8578C129.974 25.8578 129.649 25.5352 129.649 25.1382C129.649 24.7379 129.974 24.4182 130.377 24.4182C130.778 24.4182 131.103 24.7379 131.103 25.1382Z" fill="url(#paint13_radial_1703_298)"/>
<path d="M132.898 4.69385C122.293 4.69385 113.698 13.2042 113.698 23.7057C113.698 34.2033 122.293 42.7166 132.898 42.7166C143.501 42.7166 152.098 34.2033 152.098 23.7057C152.097 13.2047 143.501 4.69385 132.898 4.69385ZM132.898 36.5563C125.729 36.5563 119.919 30.8015 119.919 23.7062C119.919 16.6079 125.729 10.8527 132.898 10.8527C140.066 10.8527 145.877 16.6079 145.877 23.7062C145.876 30.8015 140.066 36.5563 132.898 36.5563Z" fill="url(#paint14_radial_1703_298)"/>
<path d="M132.898 11.686C126.193 11.686 120.758 17.0664 120.758 23.7043C120.758 30.3418 126.193 35.7235 132.898 35.7235C139.601 35.7235 145.034 30.3418 145.034 23.7043C145.033 17.0664 139.601 11.686 132.898 11.686ZM126.128 30.6831C124.562 29.221 123.521 27.2765 123.178 25.1717L127.188 24.5343C127.388 25.7645 127.995 26.9021 128.911 27.7555L126.128 30.6831ZM127.844 21.1455L124.2 19.3709C125.152 17.4576 126.722 15.9014 128.653 14.9606L130.446 18.5674C129.316 19.1194 128.398 20.0261 127.844 21.1455ZM130.354 33.0663L131.375 29.1759C132.592 29.4874 133.888 29.3923 135.044 28.9056L136.637 32.6035C134.655 33.4363 132.44 33.6 130.354 33.0663ZM133.916 18.0629L134.713 14.1182C136.823 14.5396 138.744 15.6451 140.161 17.2512L137.097 19.8912C136.271 18.9533 135.149 18.3087 133.916 18.0629ZM141.032 28.9863L137.658 26.7495C138.356 25.7122 138.693 24.4714 138.61 23.2272L142.661 22.9603C142.803 25.0872 142.228 27.2117 141.032 28.9863Z" fill="url(#paint15_radial_1703_298)"/>
<path d="M132.898 10.8638C125.737 10.8638 119.93 16.6132 119.93 23.7043C119.93 30.7972 125.737 36.5467 132.898 36.5467C140.059 36.5467 145.865 30.7972 145.865 23.7043C145.865 16.6127 140.059 10.8638 132.898 10.8638ZM132.898 35.7235C126.193 35.7235 120.759 30.3417 120.759 23.7043C120.759 17.0663 126.193 11.686 132.898 11.686C139.601 11.686 145.034 17.0663 145.034 23.7043C145.034 30.3417 139.601 35.7235 132.898 35.7235Z" fill="url(#paint16_linear_1703_298)"/>
<path d="M129.125 27.5304C128.264 26.7254 127.684 25.6435 127.494 24.4862L127.446 24.1814L127.14 24.2304L122.823 24.9168L122.873 25.2211C123.223 27.3854 124.305 29.4043 125.916 30.9062L126.143 31.1184L129.351 27.7445L129.125 27.5304ZM126.128 30.683C124.562 29.2209 123.522 27.2765 123.179 25.1717L127.189 24.5342C127.388 25.7645 127.996 26.9021 128.912 27.7555L126.128 30.683Z" fill="url(#paint17_linear_1703_298)"/>
<path d="M140.395 17.0492C138.943 15.398 136.944 14.2488 134.774 13.8178L134.468 13.7568L134.408 14.0607L133.548 18.3039L133.854 18.3648C135.017 18.5967 136.086 19.2102 136.864 20.0948L137.069 20.3262L140.6 17.2815L140.395 17.0492ZM137.097 19.8912C136.271 18.9534 135.149 18.3082 133.916 18.0624L134.714 14.1178C136.823 14.5392 138.745 15.6447 140.162 17.2508L137.097 19.8912Z" fill="url(#paint18_linear_1703_298)"/>
<path d="M142.972 22.9402L142.951 22.6335L142.641 22.6518L138.279 22.9412L138.299 23.2489C138.377 24.4196 138.057 25.6014 137.397 26.5762L137.226 26.8321L141.116 29.4111L141.29 29.1567C142.519 27.3337 143.118 25.1281 142.972 22.9402ZM141.032 28.9863L137.659 26.7495C138.356 25.7122 138.693 24.4714 138.61 23.2273L142.662 22.9604C142.804 25.0873 142.228 27.2118 141.032 28.9863Z" fill="url(#paint19_linear_1703_298)"/>
<path d="M128.796 14.5474L128.518 14.6842C126.531 15.6532 124.898 17.2671 123.921 19.2341L123.783 19.5106L127.986 21.5559L128.123 21.2803C128.647 20.2282 129.52 19.3627 130.584 18.8429L130.862 18.708L128.796 14.5474ZM127.844 21.1455L124.2 19.3709C125.152 17.4576 126.722 15.9014 128.653 14.9606L130.446 18.5674C129.317 19.1194 128.399 20.0261 127.844 21.1455Z" fill="url(#paint20_linear_1703_298)"/>
<path d="M135.21 28.499L134.924 28.6209C133.833 29.0798 132.601 29.1705 131.453 28.8773L131.152 28.799L129.977 33.2865L130.278 33.3633C132.42 33.9134 134.72 33.7445 136.758 32.8872L137.045 32.7638L135.21 28.499ZM130.354 33.0662L131.375 29.1758C132.593 29.4873 133.888 29.3923 135.044 28.9056L136.637 32.6035C134.655 33.4363 132.44 33.6 130.354 33.0662Z" fill="url(#paint21_linear_1703_298)"/>
<path d="M134.493 23.4388C134.493 24.3848 133.721 25.1504 132.767 25.1504C131.81 25.1504 131.038 24.3844 131.038 23.4388C131.038 22.4946 131.81 21.728 132.767 21.728C133.721 21.728 134.493 22.4946 134.493 23.4388Z" fill="url(#paint22_radial_1703_298)"/>
<path d="M133.696 26.1927C133.696 26.5911 133.371 26.9137 132.968 26.9137C132.566 26.9137 132.241 26.5911 132.241 26.1927C132.241 25.7967 132.566 25.4761 132.968 25.4761C133.371 25.4761 133.696 25.7967 133.696 26.1927Z" fill="url(#paint23_radial_1703_298)"/>
<path d="M130.744 22.2332C131.145 22.2332 131.471 21.9109 131.471 21.5137C131.471 21.1162 131.145 20.7942 130.744 20.7942C130.342 20.7942 130.017 21.1162 130.017 21.5137C130.017 21.9109 130.342 22.2332 130.744 22.2332Z" fill="url(#paint24_radial_1703_298)"/>
<path d="M134.973 21.0721C134.973 21.4719 134.649 21.7935 134.248 21.7935C133.847 21.7935 133.52 21.4719 133.52 21.0721C133.52 20.6756 133.847 20.3535 134.248 20.3535C134.649 20.3535 134.973 20.6756 134.973 21.0721Z" fill="url(#paint25_radial_1703_298)"/>
<path d="M135.505 24.9095C135.906 24.9095 136.232 24.5874 136.232 24.1899C136.232 23.7925 135.906 23.4705 135.505 23.4705C135.104 23.4705 134.778 23.7925 134.778 24.1899C134.778 24.5874 135.104 24.9095 135.505 24.9095Z" fill="url(#paint26_radial_1703_298)"/>
<path d="M130.376 25.4813C130.778 25.4813 131.103 25.1594 131.103 24.7622C131.103 24.3651 130.778 24.0432 130.376 24.0432C129.975 24.0432 129.649 24.3651 129.649 24.7622C129.649 25.1594 129.975 25.4813 130.376 25.4813Z" fill="url(#paint27_radial_1703_298)"/>
<defs>
<radialGradient id="paint0_radial_1703_298" cx="0" cy="0" r="1" gradientUnits="userSpaceOnUse" gradientTransform="translate(132.897 24.0806) scale(19.2 19.0128)">
<stop offset="0.3371" stop-color="#54585D"/>
<stop offset="0.4611" stop-color="#52565B"/>
<stop offset="0.5178" stop-color="#4B4F53"/>
<stop offset="0.5608" stop-color="#404347"/>
<stop offset="0.5969" stop-color="#2F3235"/>
<stop offset="0.6283" stop-color="#1A1C1D"/>
<stop offset="0.6566" stop-color="#010101"/>
<stop offset="0.6573"/>
<stop offset="0.736" stop-color="#797E83"/>
<stop offset="0.9382" stop-color="#18171A"/>
<stop offset="1" stop-color="#808184"/>
</radialGradient>
<radialGradient id="paint1_radial_1703_298" cx="0" cy="0" r="1" gradientUnits="userSpaceOnUse" gradientTransform="translate(132.895 24.0794) scale(12.1373 12.019)">
<stop offset="0.5843" stop-color="#EAEBEC"/>
<stop offset="0.9382" stop-color="#65686C"/>
<stop offset="1" stop-color="#EAEBEC"/>
</radialGradient>
<linearGradient id="paint2_linear_1703_298" x1="123.251" y1="32.843" x2="142.82" y2="15.0681" gradientUnits="userSpaceOnUse">
<stop stop-color="#9EA6AF"/>
<stop offset="0.3764" stop-color="white"/>
<stop offset="0.4019" stop-color="#F4F4F6"/>
<stop offset="0.4944" stop-color="#CFD2D7"/>
<stop offset="0.5809" stop-color="#B5B9C2"/>
<stop offset="0.6584" stop-color="#A6AAB5"/>
<stop offset="0.7191" stop-color="#A0A5B0"/>
<stop offset="1" stop-color="#F7F7F8"/>
</linearGradient>
<linearGradient id="paint3_linear_1703_298" x1="123.805" y1="29.0085" x2="128.097" y2="25.11" gradientUnits="userSpaceOnUse">
<stop stop-color="#101116"/>
<stop offset="1" stop-color="#6F747C"/>
</linearGradient>
<linearGradient id="paint4_linear_1703_298" x1="133.941" y1="19.1575" x2="138.426" y2="15.0843" gradientUnits="userSpaceOnUse">
<stop stop-color="#101116"/>
<stop offset="1" stop-color="#6F747C"/>
</linearGradient>
<linearGradient id="paint5_linear_1703_298" x1="137.99" y1="28.1048" x2="143.348" y2="23.2381" gradientUnits="userSpaceOnUse">
<stop stop-color="#101116"/>
<stop offset="1" stop-color="#6F747C"/>
</linearGradient>
<linearGradient id="paint6_linear_1703_298" x1="124.949" y1="21.2243" x2="130.297" y2="16.3665" gradientUnits="userSpaceOnUse">
<stop stop-color="#101116"/>
<stop offset="1" stop-color="#6F747C"/>
</linearGradient>
<linearGradient id="paint7_linear_1703_298" x1="130.566" y1="34.3658" x2="135.947" y2="29.4784" gradientUnits="userSpaceOnUse">
<stop stop-color="#101116"/>
<stop offset="1" stop-color="#6F747C"/>
</linearGradient>
<radialGradient id="paint8_radial_1703_298" cx="0" cy="0" r="1" gradientUnits="userSpaceOnUse" gradientTransform="translate(132.765 23.8146) scale(1.72735 1.71049)">
<stop stop-color="#848C94"/>
<stop offset="1" stop-color="#111016"/>
</radialGradient>
<radialGradient id="paint9_radial_1703_298" cx="0" cy="0" r="1" gradientUnits="userSpaceOnUse" gradientTransform="translate(132.968 26.5684) scale(0.726529 0.719444)">
<stop stop-color="#9EA6AF"/>
<stop offset="1" stop-color="#111016"/>
</radialGradient>
<radialGradient id="paint10_radial_1703_298" cx="0" cy="0" r="1" gradientUnits="userSpaceOnUse" gradientTransform="translate(130.744 21.8885) scale(0.72633 0.719245)">
<stop stop-color="#9EA6AF"/>
<stop offset="1" stop-color="#111016"/>
</radialGradient>
<radialGradient id="paint11_radial_1703_298" cx="0" cy="0" r="1" gradientUnits="userSpaceOnUse" gradientTransform="translate(134.233 21.4508) scale(0.726591 0.719461)">
<stop stop-color="#9EA6AF"/>
<stop offset="1" stop-color="#111016"/>
</radialGradient>
<radialGradient id="paint12_radial_1703_298" cx="0" cy="0" r="1" gradientUnits="userSpaceOnUse" gradientTransform="translate(135.505 24.566) scale(0.726659 0.719572)">
<stop stop-color="#9EA6AF"/>
<stop offset="1" stop-color="#111016"/>
</radialGradient>
<radialGradient id="paint13_radial_1703_298" cx="0" cy="0" r="1" gradientUnits="userSpaceOnUse" gradientTransform="translate(130.376 25.1375) scale(0.726658 0.719572)">
<stop stop-color="#9EA6AF"/>
<stop offset="1" stop-color="#111016"/>
</radialGradient>
<radialGradient id="paint14_radial_1703_298" cx="0" cy="0" r="1" gradientUnits="userSpaceOnUse" gradientTransform="translate(132.897 23.7047) scale(19.1993 19.0121)">
<stop offset="0.3371" stop-color="#54585D"/>
<stop offset="0.4611" stop-color="#52565B"/>
<stop offset="0.5178" stop-color="#4B4F53"/>
<stop offset="0.5608" stop-color="#404347"/>
<stop offset="0.5969" stop-color="#2F3235"/>
<stop offset="0.6283" stop-color="#1A1C1D"/>
<stop offset="0.6566" stop-color="#010101"/>
<stop offset="0.6573"/>
<stop offset="0.736" stop-color="#797E83"/>
<stop offset="0.9382" stop-color="#18171A"/>
<stop offset="1" stop-color="#808184"/>
</radialGradient>
<radialGradient id="paint15_radial_1703_298" cx="0" cy="0" r="1" gradientUnits="userSpaceOnUse" gradientTransform="translate(132.895 23.7043) scale(12.1373 12.019)">
<stop offset="0.5843" stop-color="#EAEBEC"/>
<stop offset="0.9382" stop-color="#65686C"/>
<stop offset="1" stop-color="#EAEBEC"/>
</radialGradient>
<linearGradient id="paint16_linear_1703_298" x1="123.251" y1="32.4674" x2="142.82" y2="14.6922" gradientUnits="userSpaceOnUse">
<stop stop-color="#9EA6AF"/>
<stop offset="0.3764" stop-color="white"/>
<stop offset="0.4019" stop-color="#F4F4F6"/>
<stop offset="0.4944" stop-color="#CFD2D7"/>
<stop offset="0.5809" stop-color="#B5B9C2"/>
<stop offset="0.6584" stop-color="#A6AAB5"/>
<stop offset="0.7191" stop-color="#A0A5B0"/>
<stop offset="1" stop-color="#F7F7F8"/>
</linearGradient>
<linearGradient id="paint17_linear_1703_298" x1="123.806" y1="28.6331" x2="128.098" y2="24.7341" gradientUnits="userSpaceOnUse">
<stop stop-color="#101116"/>
<stop offset="1" stop-color="#6F747C"/>
</linearGradient>
<linearGradient id="paint18_linear_1703_298" x1="133.941" y1="18.7824" x2="138.425" y2="14.709" gradientUnits="userSpaceOnUse">
<stop stop-color="#101116"/>
<stop offset="1" stop-color="#6F747C"/>
</linearGradient>
<linearGradient id="paint19_linear_1703_298" x1="137.99" y1="27.7286" x2="143.347" y2="22.8623" gradientUnits="userSpaceOnUse">
<stop stop-color="#101116"/>
<stop offset="1" stop-color="#6F747C"/>
</linearGradient>
<linearGradient id="paint20_linear_1703_298" x1="124.949" y1="20.849" x2="130.296" y2="15.9916" gradientUnits="userSpaceOnUse">
<stop stop-color="#101116"/>
<stop offset="1" stop-color="#6F747C"/>
</linearGradient>
<linearGradient id="paint21_linear_1703_298" x1="130.565" y1="33.9908" x2="135.946" y2="29.103" gradientUnits="userSpaceOnUse">
<stop stop-color="#101116"/>
<stop offset="1" stop-color="#6F747C"/>
</linearGradient>
<radialGradient id="paint22_radial_1703_298" cx="0" cy="0" r="1" gradientUnits="userSpaceOnUse" gradientTransform="translate(132.765 23.4388) scale(1.72768 1.71083)">
<stop stop-color="#848C94"/>
<stop offset="1" stop-color="#111016"/>
</radialGradient>
<radialGradient id="paint23_radial_1703_298" cx="0" cy="0" r="1" gradientUnits="userSpaceOnUse" gradientTransform="translate(132.968 26.1943) scale(0.726528 0.719442)">
<stop stop-color="#9EA6AF"/>
<stop offset="1" stop-color="#111016"/>
</radialGradient>
<radialGradient id="paint24_radial_1703_298" cx="0" cy="0" r="1" gradientUnits="userSpaceOnUse" gradientTransform="translate(130.744 21.5135) scale(0.726659 0.719573)">
<stop stop-color="#9EA6AF"/>
<stop offset="1" stop-color="#111016"/>
</radialGradient>
<radialGradient id="paint25_radial_1703_298" cx="0" cy="0" r="1" gradientUnits="userSpaceOnUse" gradientTransform="translate(134.233 21.0761) scale(0.726591 0.719462)">
<stop stop-color="#9EA6AF"/>
<stop offset="1" stop-color="#111016"/>
</radialGradient>
<radialGradient id="paint26_radial_1703_298" cx="0" cy="0" r="1" gradientUnits="userSpaceOnUse" gradientTransform="translate(135.505 24.1901) scale(0.726329 0.719246)">
<stop stop-color="#9EA6AF"/>
<stop offset="1" stop-color="#111016"/>
</radialGradient>
<radialGradient id="paint27_radial_1703_298" cx="0" cy="0" r="1" gradientUnits="userSpaceOnUse" gradientTransform="translate(130.376 24.7618) scale(0.726329 0.719246)">
<stop stop-color="#9EA6AF"/>
<stop offset="1" stop-color="#111016"/>
</radialGradient>
</defs>
</svg>
