<svg width="64" height="64" viewBox="0 0 64 64" fill="none" xmlns="http://www.w3.org/2000/svg">
<circle cx="28" cy="33.2809" r="20" fill="#FFDD2C"/>
<path d="M32 2.66669V61.3334" stroke="black" stroke-width="4" stroke-linecap="round" stroke-linejoin="round"/>
<path d="M45.3333 13.3333H25.3333C22.858 13.3333 20.484 14.3166 18.7337 16.067C16.9833 17.8173 16 20.1913 16 22.6666C16 25.142 16.9833 27.516 18.7337 29.2663C20.484 31.0166 22.858 32 25.3333 32H38.6667C41.142 32 43.516 32.9833 45.2663 34.7336C47.0167 36.484 48 38.858 48 41.3333C48 43.8087 47.0167 46.1826 45.2663 47.933C43.516 49.6833 41.142 50.6666 38.6667 50.6666H16" stroke="black" stroke-width="4" stroke-linecap="round" stroke-linejoin="round"/>
</svg>
