<svg width="64" height="65" viewBox="0 0 64 65" fill="none" xmlns="http://www.w3.org/2000/svg">
<ellipse cx="35" cy="30" rx="22" ry="21" fill="#FFDD2C"/>
<path fill-rule="evenodd" clip-rule="evenodd" d="M9.04374 3.20656C7.95011 3.6577 7.19769 4.12677 6.23545 4.95725C4.83555 6.16531 3.783 7.54969 3.1954 8.95543L2.95166 9.53852V14.0317V18.5248L3.11091 18.9166C3.69575 20.3553 4.769 21.8901 5.83367 22.8103C6.60765 23.4791 7.48533 24.1234 8.0747 24.4552C8.34992 24.6102 8.59599 24.7831 8.62158 24.8394C8.64718 24.8957 8.68912 32.2679 8.71483 41.2221C8.74116 50.4162 8.78745 57.942 8.82112 58.5123C8.88829 59.6498 8.99948 60.1312 9.38478 60.9536C10.172 62.6337 11.6441 64.0484 13.381 64.794L13.8609 65H16.4331H19.0053L19.4738 64.7966C20.801 64.2201 22.1033 63.1348 22.8963 61.9444C23.2446 61.4216 23.5683 60.7452 23.7772 60.1037C23.9441 59.591 23.9729 59.3955 24.0206 58.4511C24.0504 57.862 24.0889 50.6874 24.1063 42.5074C24.1237 34.3274 24.1545 26.9913 24.1747 26.2048L24.2116 24.7749L24.3985 24.6747C24.7916 24.464 26.0258 23.6173 26.5228 23.2174C27.5581 22.3843 28.33 21.4973 28.9792 20.3945C29.1517 20.1015 29.3 19.8539 29.3087 19.8442C29.3175 19.8346 29.5118 20.0205 29.7405 20.2574L30.1565 20.6881H37.1882H44.2198L44.6938 21.0347C46.2375 22.1636 47.5038 24.1958 48.0248 26.3801C48.0931 26.6662 48.2172 27.1166 48.3008 27.381L48.4527 27.8617L48.3102 28.0152C48.0721 28.2718 47.5346 28.6083 46.6983 29.0247L45.9024 29.4209L35.5011 29.4852L25.0999 29.5495L24.8668 29.8162C24.453 30.2897 24.2951 30.6424 24.2951 31.0928C24.2951 31.5896 24.4974 31.9939 24.9692 32.44L25.2922 32.7453L33.3319 32.742C42.572 32.7383 45.7741 32.6876 46.5146 32.5335C48.8153 32.0549 51.4683 30.0025 52.7607 27.7015L52.9294 27.4011L55.6607 27.4437L58.3921 27.4861L58.627 27.7135C58.9633 28.0388 59.0512 28.2423 59.0592 28.7143C59.0648 29.0435 59.0406 29.1593 58.9374 29.2976C58.6477 29.6857 57.9841 29.8846 56.0048 30.1763C53.4804 30.5483 53.1205 30.6742 52.5172 31.3961C52.2187 31.7532 52.0918 32.219 52.1356 32.797C52.1811 33.3993 52.364 33.7554 53.2251 34.9181C54.0486 36.0301 54.1637 36.2215 54.2928 36.693C54.4907 37.4164 54.5572 43.9953 54.3763 44.9552C54.2736 45.4991 53.5837 46.3307 52.8825 46.7555C52.5487 46.9578 52.5447 46.9584 51.4598 47.0094C50.8615 47.0375 44.7238 47.079 37.8204 47.1017L25.2689 47.1429L24.9121 47.4875C24.4274 47.9556 24.2942 48.2206 24.2924 48.7196C24.2907 49.2145 24.4923 49.616 24.969 50.0666L25.2918 50.3718L30.1785 50.3415C32.8662 50.3249 38.3577 50.2975 42.3818 50.2807C46.406 50.264 50.4493 50.2319 51.3669 50.2095L53.0353 50.1689V51.3675V52.5662L52.8764 52.7548L52.7176 52.9436L48.6389 52.9279L44.5602 52.9121L44.4201 52.7042C44.3296 52.57 44.2799 52.4056 44.2799 52.241C44.2799 51.8794 44.1281 51.4139 43.914 51.1184C43.6957 50.8171 43.2063 50.5219 42.8323 50.4659C42.2321 50.3759 41.5314 50.7528 41.1989 51.3445C41.05 51.6093 41.0083 51.7662 40.9865 52.1426C40.9539 52.7053 41.0906 53.4348 41.3105 53.8726C41.6862 54.6203 42.5566 55.4739 43.3308 55.8537C43.7045 56.0371 43.8535 56.0721 44.4942 56.1278C45.454 56.2112 51.9637 56.2116 52.7474 56.1282C53.4961 56.0487 53.8316 55.968 54.2597 55.7649C54.8555 55.4821 55.77 54.4602 56.1054 53.7024C56.2644 53.343 56.3322 52.4749 56.3917 50.0355L56.4394 48.077L56.7001 47.6795C56.8435 47.461 57.1383 46.9175 57.3553 46.4718L57.7497 45.6614L57.765 41.4833C57.7808 37.1873 57.7665 36.8447 57.5303 35.873C57.3961 35.321 57.0366 34.5918 56.5933 33.9725C56.3898 33.688 56.2326 33.4459 56.244 33.4345C56.2555 33.423 56.6969 33.346 57.225 33.2633C59.837 32.8545 60.9192 32.3084 61.7221 30.9942L61.9132 30.6814V28.598V26.5146L61.6331 26.142C61.2415 25.6214 60.4871 24.9499 60.0152 24.7021C59.1318 24.2383 58.2944 24.1594 54.566 24.1888C51.6756 24.2116 51.7594 24.2039 51.0708 24.5067C50.9922 24.5412 50.9125 24.3945 50.6519 23.7357C49.8745 21.7697 49.0866 20.6447 47.3412 19.0087C46.3027 18.0352 45.9747 17.8346 45.1312 17.6572C44.3179 17.4862 42.6835 17.4466 36.3903 17.4454C30.8673 17.4443 30.1885 17.434 30.2202 17.3513C30.3306 17.0637 30.3911 15.3969 30.3662 13.3268C30.3352 10.749 30.3319 10.7259 29.793 9.37198C29.1034 7.6396 28.6371 6.95043 27.22 5.56936C25.9204 4.3028 24.9149 3.61657 23.6752 3.15013C23.2809 3.00177 23.2524 3 21.2372 3C19.1985 3 19.1981 3 19.068 3.13844C18.8878 3.3302 18.7059 3.76236 18.6229 4.19581C18.5768 4.43634 18.5426 5.99454 18.5225 8.76851L18.492 12.9763H16.4159H14.3399L14.3382 9.50296C14.3366 6.03145 14.2874 4.53904 14.1548 3.93239C14.1161 3.75508 13.9973 3.47966 13.8907 3.32034L13.697 3.0306L11.6153 3.01757L9.53356 3.00447L9.04374 3.20656ZM11.0311 10.6505L11.0942 14.9654L11.7221 15.5605L12.35 16.1556L16.4216 16.1543L20.4932 16.1531L21.1174 15.5593L21.7416 14.9654L21.8123 10.4975C21.8512 8.04018 21.8947 6.01744 21.9091 6.00256C21.9906 5.91792 23.1922 6.48455 23.8301 6.90839C24.958 7.65802 25.7231 8.4918 26.2982 9.59856C26.9488 10.8503 27.0973 11.7179 27.1016 14.2922C27.1039 15.6433 27.0845 16.0431 26.9952 16.4841C26.7121 17.8826 25.9811 19.2583 25.0138 20.2126C24.3155 20.9017 23.8051 21.2517 22.4195 21.9923C21.827 22.3089 21.3417 22.6517 21.1781 22.869C21.1055 22.9655 21.0474 23.2018 21.0105 23.5508C20.9162 24.4415 20.8372 32.7025 20.7941 46.1797L20.7532 58.9714L20.4122 59.6446C20.1206 60.2203 19.9952 60.3933 19.5467 60.8381C19.0002 61.3801 18.5885 61.6592 17.9387 61.928C17.5964 62.0695 17.4531 62.0897 16.6301 62.1115C15.5034 62.1414 15.1803 62.0817 14.4389 61.7062C13.9795 61.4735 13.7773 61.3202 13.2967 60.8401C12.7998 60.3436 12.6665 60.1653 12.4027 59.6443L12.0928 59.032L12.0502 46.7608C12.0025 33.0282 11.9223 24.5865 11.8303 23.6287C11.7705 23.0059 11.7627 22.9826 11.539 22.7516C11.3089 22.514 10.6732 22.115 9.67499 21.5819C8.17891 20.7827 7.1323 19.6882 6.41527 18.1726C5.8158 16.9056 5.66732 15.9289 5.72781 13.6496C5.773 11.9464 5.8401 11.3494 6.0533 10.7551C6.84447 8.54977 8.25747 7.05411 10.3772 6.17834L10.9418 5.94509L10.9549 6.14033C10.9621 6.24775 10.9964 8.27734 11.0311 10.6505ZM51.2357 34.6105C50.9491 34.7126 50.7294 34.9211 49.5249 36.234C49.0152 36.7894 48.5703 37.2641 48.5361 37.2888C48.5019 37.3135 47.0661 37.3342 45.3453 37.3347L42.2168 37.3356L41.8689 37.7002C41.4554 38.1336 41.2829 38.4825 41.2811 38.8892C41.2788 39.4024 41.3944 39.6527 41.8602 40.1435L42.29 40.5964L45.6575 40.5583C47.5096 40.5374 49.172 40.4935 49.3518 40.4609C49.9717 40.3483 50.1893 40.1931 51.3224 39.0555C52.4344 37.939 53.1356 37.118 53.3434 36.689C53.5183 36.3278 53.5038 35.8484 53.306 35.4516C52.9467 34.7308 51.9896 34.3419 51.2357 34.6105ZM24.8561 42.7751C24.0608 43.6178 24.0592 44.3331 24.8507 45.1718L25.2531 45.5982H34.1136H42.974L43.3718 45.1851C43.8608 44.6773 44.0048 44.3452 43.9583 43.8328C43.9161 43.3676 43.8136 43.1819 43.3492 42.729L42.965 42.3544H34.1091H25.2531L24.8561 42.7751ZM16.0539 55.8118C15.5625 55.9726 15.1475 56.3043 14.9341 56.7068C14.8225 56.9173 14.8009 57.0812 14.78 57.8754C14.7475 59.1154 14.8074 59.3904 15.2046 59.8248C15.9151 60.602 16.9485 60.5954 17.6592 59.809C17.9974 59.4347 18.0441 59.2255 18.0441 58.0839C18.0441 57.2562 18.0241 57.0223 17.9334 56.7872C17.6774 56.124 16.6805 55.6067 16.0539 55.8118Z" fill="black"/>
</svg>
