<svg width="64" height="64" viewBox="0 0 64 64" fill="none" xmlns="http://www.w3.org/2000/svg">
<circle cx="38.0685" cy="27.1912" r="20" fill="#FFDD2C"/>
<path d="M37.3333 5.33331H16C14.5855 5.33331 13.2289 5.89522 12.2288 6.89541C11.2286 7.8956 10.6667 9.25216 10.6667 10.6666V53.3333C10.6667 54.7478 11.2286 56.1044 12.2288 57.1045C13.2289 58.1047 14.5855 58.6666 16 58.6666H48C49.4145 58.6666 50.771 58.1047 51.7712 57.1045C52.7714 56.1044 53.3333 54.7478 53.3333 53.3333V21.3333L37.3333 5.33331Z" stroke="black" stroke-width="4" stroke-linecap="round" stroke-linejoin="round"/>
<path d="M37.3333 5.33331V21.3333H53.3333" stroke="black" stroke-width="4" stroke-linecap="round" stroke-linejoin="round"/>
<path d="M42.6667 34.6667H21.3333" stroke="black" stroke-width="4" stroke-linecap="round" stroke-linejoin="round"/>
<path d="M42.6667 45.3333H21.3333" stroke="black" stroke-width="4" stroke-linecap="round" stroke-linejoin="round"/>
<path d="M26.6667 24H24H21.3333" stroke="black" stroke-width="4" stroke-linecap="round" stroke-linejoin="round"/>
</svg>
